<svg width="48" height="48" viewBox="0 0 48 48" fill="none" xmlns="http://www.w3.org/2000/svg">
<path d="M0 0H36C42.6274 0 48 5.37258 48 12V48H14C6.26801 48 0 41.732 0 34V0Z" fill="#101623"/>
<path d="M8 0H40C44.4183 0 48 3.58172 48 8V40H16C11.5817 40 8 36.4183 8 32V0Z" fill="#3459DF"/>
<path d="M19.75 16.3333L26.9825 21.155C27.2838 21.356 27.6378 21.4633 28 21.4633C28.3622 21.4633 28.7162 21.356 29.0175 21.155L36.25 16.3333M21.5833 26.4167H34.4167C34.9029 26.4167 36.25 26.4167 36.25 26.4167C36.25 26.4167 36.25 25.0696 36.25 24.5833V15.4167C36.25 14.9304 36.25 13.5833 36.25 13.5833C36.25 13.5833 34.9029 13.5833 34.4167 13.5833H21.5833C21.0971 13.5833 19.75 13.5833 19.75 13.5833C19.75 13.5833 19.75 14.9304 19.75 15.4167V24.5833C19.75 25.0696 19.75 26.4167 19.75 26.4167C19.75 26.4167 21.0971 26.4167 21.5833 26.4167Z" stroke="#F2F5FF" stroke-width="1.5" stroke-linecap="round" stroke-linejoin="round"/>
</svg>
