<svg width="24" height="24" viewBox="0 0 24 24" fill="none" xmlns="http://www.w3.org/2000/svg">
<path fill-rule="evenodd" clip-rule="evenodd" d="M12 3.5C7.30558 3.5 3.5 7.30558 3.5 12C3.5 16.6944 7.30558 20.5 12 20.5C16.6944 20.5 20.5 16.6944 20.5 12C20.5 7.30558 16.6944 3.5 12 3.5ZM2.5 12C2.5 6.75329 6.75329 2.5 12 2.5C17.2467 2.5 21.5 6.75329 21.5 12C21.5 17.2467 17.2467 21.5 12 21.5C6.75329 21.5 2.5 17.2467 2.5 12Z" fill="#DF3B28"/>
<path fill-rule="evenodd" clip-rule="evenodd" d="M5.28231 5.28243C5.47757 5.08717 5.79416 5.08717 5.98942 5.28243L18.7173 18.0104C18.9126 18.2056 18.9126 18.5222 18.7173 18.7175C18.5221 18.9127 18.2055 18.9127 18.0102 18.7175L5.28231 5.98954C5.08705 5.79428 5.08705 5.4777 5.28231 5.28243Z" fill="#DF3B28"/>
</svg>
