<svg width="24" height="24" viewBox="0 0 24 24" fill="none" xmlns="http://www.w3.org/2000/svg">
<path fill-rule="evenodd" clip-rule="evenodd" d="M10.1241 4.41988C9.84528 4.66008 9.51246 4.91006 9.12839 5.06897C8.74952 5.22573 8.34033 5.27895 7.98002 5.30234C7.74474 5.31762 7.48204 5.32168 7.24249 5.32539C7.12802 5.32716 7.01885 5.32885 6.92048 5.33165C6.19868 5.35213 5.8312 5.44088 5.63604 5.63604C5.44088 5.8312 5.35213 6.19868 5.33165 6.92047C5.32886 7.01884 5.32717 7.12802 5.3254 7.24248C5.32169 7.48202 5.31762 7.74473 5.30235 7.98001C5.27896 8.34032 5.22574 8.74951 5.06897 9.12838C4.91006 9.51245 4.66008 9.84526 4.41988 10.124C4.25446 10.316 4.06383 10.5149 3.89114 10.695C3.81968 10.7695 3.75129 10.8408 3.68903 10.9072C3.45714 11.1541 3.27809 11.3635 3.15624 11.5608C3.03751 11.753 3 11.8914 3 12C3 12.1085 3.03751 12.247 3.15624 12.4392C3.27809 12.6365 3.45714 12.8458 3.68903 13.0928C3.75129 13.1591 3.81967 13.2305 3.89113 13.305C4.06382 13.4851 4.25445 13.6839 4.41988 13.8759C4.66008 14.1547 4.91006 14.4875 5.06897 14.8716C5.22573 15.2505 5.27895 15.6597 5.30234 16.02C5.31762 16.2553 5.32168 16.518 5.32539 16.7575C5.32716 16.872 5.32885 16.9812 5.33165 17.0795C5.35213 17.8013 5.44088 18.1688 5.63604 18.364C5.8312 18.5591 6.19868 18.6479 6.92047 18.6684C7.01884 18.6711 7.12801 18.6728 7.24247 18.6746C7.48202 18.6783 7.74472 18.6824 7.98001 18.6977C8.34032 18.721 8.74951 18.7743 9.12838 18.931C9.51245 19.0899 9.84526 19.3399 10.124 19.5801C10.316 19.7455 10.5149 19.9362 10.695 20.1089C10.7695 20.1803 10.8408 20.2487 10.9072 20.311C11.1541 20.5429 11.3635 20.7219 11.5608 20.8438C11.753 20.9625 11.8914 21 12 21C12.1085 21 12.247 20.9625 12.4392 20.8438C12.6365 20.7219 12.8458 20.5429 13.0928 20.311C13.1591 20.2487 13.2304 20.1803 13.305 20.1089C13.4851 19.9362 13.6839 19.7456 13.8759 19.5801C14.1547 19.3399 14.4875 19.0899 14.8716 18.931C15.2505 18.7743 15.6597 18.721 16.02 18.6977C16.2553 18.6824 16.518 18.6783 16.7575 18.6746C16.872 18.6728 16.9812 18.6711 17.0795 18.6684C17.8013 18.6479 18.1688 18.5591 18.364 18.364C18.5591 18.1688 18.6479 17.8013 18.6684 17.0795C18.6711 16.9812 18.6728 16.872 18.6746 16.7575C18.6783 16.518 18.6824 16.2553 18.6977 16.02C18.721 15.6597 18.7743 15.2505 18.931 14.8716C19.0899 14.4875 19.3399 14.1547 19.5801 13.876C19.7455 13.684 19.9362 13.4851 20.1089 13.305C20.1803 13.2305 20.2487 13.1592 20.311 13.0928C20.5429 12.8459 20.7219 12.6365 20.8438 12.4392C20.9625 12.247 21 12.1086 21 12C21 11.8915 20.9625 11.753 20.8438 11.5608C20.7219 11.3635 20.5429 11.1542 20.311 10.9072C20.2487 10.8409 20.1803 10.7696 20.1089 10.695C19.9362 10.5149 19.7456 10.3161 19.5801 10.1241C19.3399 9.84528 19.0899 9.51246 18.931 9.12839C18.7743 8.74952 18.721 8.34033 18.6977 7.98002C18.6824 7.74473 18.6783 7.48203 18.6746 7.24248C18.6728 7.12802 18.6711 7.01884 18.6684 6.92048C18.6479 6.19868 18.5591 5.8312 18.364 5.63604C18.1688 5.44088 17.8013 5.35213 17.0795 5.33165C16.9812 5.32886 16.872 5.32717 16.7575 5.3254C16.518 5.32169 16.2553 5.31762 16.02 5.30235C15.6597 5.27896 15.2505 5.22574 14.8716 5.06897L15.1584 4.37595L14.8716 5.06897C14.4875 4.91006 14.1547 4.66008 13.876 4.41988C13.684 4.25446 13.4851 4.06383 13.305 3.89114C13.2305 3.81968 13.1592 3.75129 13.0928 3.68903C12.8459 3.45714 12.6365 3.27809 12.4392 3.15624C12.247 3.03751 12.1086 3 12 3C11.8915 3 11.753 3.03751 11.5608 3.15624C11.3635 3.27809 11.1542 3.45714 10.9072 3.68903C10.8409 3.75129 10.7695 3.81968 10.695 3.89114C10.5149 4.06383 10.3161 4.25446 10.1241 4.41988ZM10.7725 1.88006C11.1105 1.67132 11.5224 1.5 12 1.5C12.4776 1.5 12.8896 1.67133 13.2275 1.88007C13.5604 2.0857 13.861 2.35277 14.1195 2.59546C14.2118 2.68207 14.2971 2.76396 14.3788 2.84229C14.544 3.00079 14.694 3.1447 14.8551 3.28352C15.0885 3.48461 15.279 3.6142 15.4451 3.68293C15.597 3.74577 15.8123 3.78571 16.1172 3.8055C16.3182 3.81855 16.5115 3.82137 16.7251 3.82449C16.8488 3.8263 16.9793 3.8282 17.1221 3.83225C17.7872 3.85113 18.7569 3.90766 19.4246 4.57538C20.0923 5.24309 20.1489 6.21283 20.1677 6.87792C20.1718 7.02068 20.1737 7.15121 20.1755 7.27494C20.1786 7.48851 20.1815 7.68183 20.1945 7.88285C20.2143 8.18771 20.2542 8.40303 20.3171 8.5549L19.6241 8.84165L20.3171 8.55491C20.3858 8.72102 20.5154 8.91155 20.7165 9.14495C20.8553 9.30606 20.9992 9.45605 21.1577 9.62125C21.236 9.70289 21.3179 9.78825 21.4046 9.88051C21.6472 10.139 21.9143 10.4396 22.1199 10.7725C22.3287 11.1105 22.5 11.5224 22.5 12C22.5 12.4776 22.3287 12.8896 22.1199 13.2275C21.9143 13.5604 21.6472 13.861 21.4045 14.1195C21.3179 14.2118 21.2361 14.2971 21.1577 14.3788C20.9992 14.544 20.8553 14.694 20.7165 14.8551C20.5154 15.0885 20.3858 15.279 20.3171 15.4451C20.2542 15.597 20.2143 15.8123 20.1945 16.1172C20.1815 16.3182 20.1786 16.5115 20.1755 16.725C20.1737 16.8488 20.1718 16.9793 20.1677 17.1221C20.1489 17.7872 20.0923 18.7569 19.4246 19.4246C18.7569 20.0923 17.7872 20.1489 17.1221 20.1677C16.9793 20.1718 16.8488 20.1737 16.7251 20.1755C16.5115 20.1786 16.3182 20.1815 16.1172 20.1945C15.8123 20.2143 15.597 20.2542 15.4451 20.3171C15.279 20.3858 15.0884 20.5154 14.8551 20.7165C14.6939 20.8553 14.544 20.9992 14.3788 21.1577C14.2971 21.236 14.2117 21.3179 14.1195 21.4046C13.861 21.6472 13.5604 21.9143 13.2275 22.1199C12.8895 22.3287 12.4776 22.5 12 22.5C11.5224 22.5 11.1104 22.3287 10.7725 22.1199C10.4396 21.9143 10.139 21.6472 9.88046 21.4045C9.78821 21.3179 9.70286 21.236 9.62122 21.1577C9.45602 20.9992 9.30603 20.8553 9.14492 20.7165C8.91153 20.5154 8.721 20.3858 8.55489 20.3171C8.40302 20.2542 8.1877 20.2143 7.88284 20.1945C7.68183 20.1815 7.48853 20.1786 7.27496 20.1755C7.15123 20.1737 7.02069 20.1718 6.87792 20.1677C6.21283 20.1489 5.24309 20.0923 4.57538 19.4246C3.90766 18.7569 3.85113 17.7872 3.83225 17.1221C3.8282 16.9793 3.82629 16.8488 3.82448 16.725C3.82136 16.5115 3.81854 16.3182 3.80549 16.1172C3.7857 15.8123 3.74576 15.597 3.68292 15.4451C3.61419 15.279 3.4846 15.0884 3.28351 14.8551C3.14469 14.6939 3.00078 14.5439 2.84228 14.3787C2.76395 14.2971 2.68206 14.2117 2.59545 14.1195C2.35276 13.861 2.08569 13.5604 1.88006 13.2275C1.67132 12.8895 1.5 12.4776 1.5 12C1.5 11.5224 1.67133 11.1104 1.88007 10.7725C2.0857 10.4396 2.35277 10.139 2.59546 9.88046C2.68207 9.78821 2.76396 9.70286 2.84229 9.62122C3.00079 9.45602 3.1447 9.30603 3.28352 9.14492C3.48461 8.91153 3.6142 8.721 3.68293 8.55489C3.74577 8.40302 3.78571 8.1877 3.8055 7.88284C3.81855 7.68183 3.82137 7.48852 3.82449 7.27495C3.8263 7.15122 3.8282 7.02068 3.83225 6.87792C3.85113 6.21283 3.90766 5.24309 4.57538 4.57538C5.24309 3.90766 6.21283 3.85113 6.87792 3.83225C7.02069 3.8282 7.15122 3.82629 7.27496 3.82448C7.48852 3.82136 7.68183 3.81854 7.88285 3.80549C8.18771 3.7857 8.40303 3.74576 8.5549 3.68293L8.84165 4.37595L8.55491 3.68292C8.72102 3.61419 8.91155 3.4846 9.14495 3.28351C9.30606 3.14469 9.45605 3.00078 9.62125 2.84228C9.7029 2.76395 9.78825 2.68206 9.88051 2.59545C10.139 2.35276 10.4396 2.08569 10.7725 1.88006Z" fill="#70C174"/>
<path fill-rule="evenodd" clip-rule="evenodd" d="M16.6675 9.23215C16.9535 9.53177 16.9425 10.0065 16.6429 10.2925L11.1428 15.5425C10.853 15.8192 10.3969 15.8192 10.1071 15.5425L7.35714 12.9175C7.05752 12.6315 7.04648 12.1568 7.33249 11.8571C7.61849 11.5575 8.09324 11.5465 8.39286 11.8325L10.625 13.9632L15.6071 9.20748C15.9068 8.92148 16.3815 8.93252 16.6675 9.23215Z" fill="#70C174"/>
</svg>
