<svg width="48" height="48" viewBox="0 0 48 48" fill="none" xmlns="http://www.w3.org/2000/svg">
<path d="M0 0H36C42.6274 0 48 5.37258 48 12V48H14C6.26801 48 0 41.732 0 34V0Z" fill="#101623"/>
<path d="M8 0H40C44.4183 0 48 3.58172 48 8V40H16C11.5817 40 8 36.4183 8 32V0Z" fill="#3459DF"/>
<rect x="26" y="28" width="2" height="2" fill="white"/>
<path d="M22 16.7273V16.7273C22 15.221 23.221 14 24.7273 14H30.25C31.9069 14 33.25 15.3431 33.25 17V17C33.25 18.6569 31.9069 20 30.25 20H30.125C28.3991 20 27 21.3991 27 23.125V26" stroke="white" stroke-width="2"/>
</svg>
