<svg width="160" height="48" viewBox="0 0 160 48" fill="none" xmlns="http://www.w3.org/2000/svg">
<path d="M11.8828 31H7.97656V16.9082H11.1895L16.6289 24.2129H16.707V16.9082H20.6133V31H17.4395L11.9609 23.5781H11.8828V31ZM24.1387 18.627C25.4147 17.3184 27.1432 16.6641 29.3242 16.6641C31.5052 16.6641 33.2337 17.3184 34.5098 18.627C35.7858 19.9355 36.4238 21.7129 36.4238 23.959C36.4238 26.2051 35.7858 27.9824 34.5098 29.291C33.2337 30.5931 31.5052 31.2441 29.3242 31.2441C27.1367 31.2441 25.4049 30.5931 24.1289 29.291C22.8594 27.9824 22.2246 26.2051 22.2246 23.959C22.2246 21.7129 22.8626 19.9355 24.1387 18.627ZM31.4141 21.0488C30.8867 20.3262 30.1901 19.9648 29.3242 19.9648C28.4583 19.9648 27.7617 20.3262 27.2344 21.0488C26.707 21.7715 26.4434 22.7415 26.4434 23.959C26.4434 25.1699 26.7038 26.1367 27.2246 26.8594C27.752 27.582 28.4518 27.9434 29.3242 27.9434C30.1966 27.9434 30.8932 27.582 31.4141 26.8594C31.9414 26.1367 32.2051 25.1699 32.2051 23.959C32.2051 22.7415 31.9414 21.7715 31.4141 21.0488ZM42.1758 19.9648V23.5391H43.8848C44.4642 23.5391 44.9199 23.3763 45.252 23.0508C45.5905 22.7253 45.7598 22.2956 45.7598 21.7617C45.7598 21.2344 45.5872 20.8047 45.2422 20.4727C44.8971 20.1341 44.4479 19.9648 43.8945 19.9648H42.1758ZM42.1758 26.2734V31H38.0352V16.9082H44.2949C46.1569 16.9082 47.5697 17.3249 48.5332 18.1582C49.5033 18.9915 49.9883 20.1699 49.9883 21.6934C49.9883 22.5462 49.7865 23.334 49.3828 24.0566C48.9857 24.7793 48.429 25.3132 47.7129 25.6582L50.3887 31H45.7598L43.5332 26.2734H42.1758ZM51.668 16.9082H57.6934C59.8483 16.9082 61.5182 17.5072 62.7031 18.7051C63.888 19.8965 64.4805 21.612 64.4805 23.8516C64.4805 26.1042 63.8815 27.8587 62.6836 29.1152C61.4922 30.3717 59.8288 31 57.6934 31H51.668V16.9082ZM55.8086 20.1992V27.709H57.1074C59.2103 27.709 60.2617 26.4232 60.2617 23.8516C60.2617 22.6732 59.985 21.7715 59.4316 21.1465C58.8848 20.515 58.11 20.1992 57.1074 20.1992H55.8086ZM75.3008 34.0566H71.3945V16.9082H75.3008V34.0566Z" fill="#294AC0"/>
<path d="M82.1367 23.5684C82.1367 22.4421 82.5859 21.5566 83.4844 20.9121C84.3828 20.2676 85.6165 19.9453 87.1855 19.9453C88.7611 19.9453 89.9915 20.2773 90.877 20.9414C91.7689 21.6055 92.2148 22.5267 92.2148 23.7051H88.582C88.582 23.3535 88.4518 23.0768 88.1914 22.875C87.9375 22.6667 87.5924 22.5625 87.1562 22.5625C86.7982 22.5625 86.5085 22.6309 86.2871 22.7676C86.0723 22.8978 85.9648 23.0768 85.9648 23.3047C85.9648 23.6432 86.3132 23.8776 87.0098 24.0078L89.4414 24.4863C90.5091 24.6947 91.2904 25.0397 91.7852 25.5215C92.2865 25.9967 92.5371 26.6445 92.5371 27.4648C92.5371 28.6302 92.0553 29.5579 91.0918 30.248C90.1348 30.9316 88.862 31.2734 87.2734 31.2734C85.6133 31.2734 84.3177 30.9382 83.3867 30.2676C82.4622 29.5905 81.9642 28.6693 81.8926 27.5039H85.7598C85.7988 27.862 85.9551 28.1452 86.2285 28.3535C86.5085 28.5553 86.873 28.6562 87.3223 28.6562C87.7129 28.6562 88.0189 28.5944 88.2402 28.4707C88.4616 28.3405 88.5723 28.1647 88.5723 27.9434C88.5723 27.7741 88.4941 27.6374 88.3379 27.5332C88.1816 27.4225 87.9212 27.3346 87.5566 27.2695L85.4766 26.8594C84.3893 26.6445 83.5592 26.2572 82.9863 25.6973C82.4199 25.1309 82.1367 24.4212 82.1367 23.5684ZM94.5781 17.8555H98.582V20.2188H100.477V23.1191H98.582V27.1035C98.582 27.7871 98.9857 28.1289 99.793 28.1289C100.053 28.1289 100.281 28.1126 100.477 28.0801V30.8535C100.001 30.9512 99.4512 31 98.8262 31C97.3092 31 96.222 30.7656 95.5645 30.2969C94.9069 29.8281 94.5781 29.0599 94.5781 27.9922V23.1191H93.1523V20.2188H94.5781V17.8555ZM101.795 31V20.2188H105.701V22.3379H105.779C106.183 20.821 107.023 20.0625 108.299 20.0625C108.644 20.0625 108.956 20.1146 109.236 20.2188V23.5781C108.885 23.4284 108.497 23.3535 108.074 23.3535C106.557 23.3535 105.799 24.112 105.799 25.6289V31H101.795ZM115.32 22.6992C114.865 22.6992 114.48 22.849 114.168 23.1484C113.855 23.4479 113.68 23.8288 113.641 24.291H117C116.967 23.8092 116.795 23.4251 116.482 23.1387C116.176 22.8457 115.789 22.6992 115.32 22.6992ZM117.117 27.5039H120.682C120.512 28.6693 119.952 29.5905 119.002 30.2676C118.051 30.9382 116.837 31.2734 115.359 31.2734C113.595 31.2734 112.215 30.7786 111.219 29.7891C110.223 28.793 109.725 27.4193 109.725 25.668C109.725 23.9036 110.219 22.5104 111.209 21.4883C112.199 20.4596 113.54 19.9453 115.232 19.9453C116.906 19.9453 118.24 20.4401 119.236 21.4297C120.232 22.4128 120.73 23.7279 120.73 25.375V26.459H113.582V26.7129C113.582 27.2402 113.755 27.6764 114.1 28.0215C114.445 28.36 114.884 28.5293 115.418 28.5293C115.828 28.5293 116.183 28.4382 116.482 28.2559C116.788 28.0736 117 27.8229 117.117 27.5039ZM126.678 28.4805C127.14 28.4805 127.54 28.3633 127.879 28.1289C128.217 27.888 128.387 27.5755 128.387 27.1914V26.4883L126.688 26.6055C126.31 26.6315 126.017 26.7292 125.809 26.8984C125.6 27.0677 125.496 27.2858 125.496 27.5527C125.496 27.8392 125.604 28.0671 125.818 28.2363C126.033 28.3991 126.32 28.4805 126.678 28.4805ZM125.184 31.1562C124.181 31.1562 123.325 30.847 122.615 30.2285C121.906 29.6035 121.551 28.8158 121.551 27.8652C121.551 26.8366 121.932 26.0423 122.693 25.4824C123.462 24.916 124.572 24.5872 126.023 24.4961L128.387 24.3496V23.8223C128.387 23.4707 128.266 23.1973 128.025 23.002C127.785 22.8066 127.472 22.709 127.088 22.709C126.691 22.709 126.365 22.8034 126.111 22.9922C125.857 23.181 125.714 23.4186 125.682 23.7051H122.107C122.16 22.5462 122.648 21.6315 123.572 20.9609C124.497 20.2839 125.74 19.9453 127.303 19.9453C128.794 19.9453 129.998 20.2871 130.916 20.9707C131.834 21.6478 132.293 22.5332 132.293 23.627V31H128.387V29.5547H128.309C128.035 30.0625 127.609 30.4564 127.029 30.7363C126.456 31.0163 125.841 31.1562 125.184 31.1562ZM133.807 31V20.2188H137.713V22.3965H137.791C137.993 21.6673 138.374 21.0879 138.934 20.6582C139.493 20.222 140.141 20.0039 140.877 20.0039C141.697 20.0039 142.368 20.2122 142.889 20.6289C143.416 21.0391 143.745 21.6217 143.875 22.377H143.953C144.135 21.6608 144.526 21.0879 145.125 20.6582C145.73 20.222 146.443 20.0039 147.264 20.0039C148.312 20.0039 149.165 20.349 149.822 21.0391C150.48 21.7227 150.809 22.6146 150.809 23.7148V31H146.805V24.75C146.805 23.7279 146.368 23.2168 145.496 23.2168C145.092 23.2168 144.777 23.3535 144.549 23.627C144.321 23.8939 144.207 24.265 144.207 24.7402V31H140.408V24.7598C140.408 23.7311 139.975 23.2168 139.109 23.2168C138.706 23.2168 138.387 23.3535 138.152 23.627C137.924 23.9004 137.811 24.2715 137.811 24.7402V31H133.807Z" fill="white"/>
</svg>
