<svg width="24" height="24" viewBox="0 0 24 24" fill="none" xmlns="http://www.w3.org/2000/svg">
<path fill-rule="evenodd" clip-rule="evenodd" d="M16.4867 9.40476C16.6773 9.60451 16.67 9.92101 16.4702 10.1117L10.9702 15.3617C10.777 15.5461 10.4729 15.5461 10.2797 15.3617L7.52976 12.7367C7.33001 12.546 7.32265 12.2295 7.51333 12.0298C7.704 11.83 8.02049 11.8227 8.22024 12.0133L10.625 14.3088L15.7798 9.38832C15.9795 9.19765 16.296 9.20501 16.4867 9.40476Z" fill="#70C174"/>
<path fill-rule="evenodd" clip-rule="evenodd" d="M12 3.5C7.30558 3.5 3.5 7.30558 3.5 12C3.5 16.6944 7.30558 20.5 12 20.5C16.6944 20.5 20.5 16.6944 20.5 12C20.5 7.30558 16.6944 3.5 12 3.5ZM2.5 12C2.5 6.75329 6.75329 2.5 12 2.5C17.2467 2.5 21.5 6.75329 21.5 12C21.5 17.2467 17.2467 21.5 12 21.5C6.75329 21.5 2.5 17.2467 2.5 12Z" fill="#70C174"/>
</svg>
