<svg width="80" height="80" viewBox="0 0 80 80" fill="none" xmlns="http://www.w3.org/2000/svg">
<g clip-path="url(#clip0)">
<path d="M56.5 75.3479C51.4888 77.6911 45.8973 79 40 79C18.4609 79 0.999997 61.5391 0.999998 40C0.999999 18.4609 18.4609 0.999997 40 0.999998C61.5391 0.999999 79 18.4609 79 40C79 47.5204 76.8714 54.5436 73.1839 60.5" stroke="#535D76"/>
<path d="M13.2354 11.6337C9.51031 15.1485 6.51397 19.3626 4.41747 24.0354C2.32098 28.7082 1.16538 33.7481 1.01668 38.8675C0.867967 43.9869 1.72905 49.0855 3.55077 53.8721C5.37249 58.6587 8.11916 63.0396 11.634 66.7647" stroke="#3359DF" stroke-width="2"/>
<circle cx="7.5" cy="51.5" r="0.5" fill="#3359DF"/>
<circle cx="70.5" cy="46.5" r="0.5" fill="#3359DF"/>
<circle cx="29.5" cy="7.5" r="0.5" fill="#3359DF"/>
<path d="M68 40C68 45.5379 66.3578 50.9514 63.2812 55.556C60.2045 60.1605 55.8315 63.7494 50.7151 65.8686C45.5988 67.9879 39.9689 68.5424 34.5375 67.462C29.106 66.3816 24.1169 63.7149 20.201 59.799C16.2851 55.8831 13.6184 50.894 12.538 45.4625C11.4576 40.0311 12.0121 34.4012 14.1314 29.2849C16.2506 24.1685 19.8395 19.7955 24.444 16.7189C29.0486 13.6422 34.4621 12 40 12V37.2C39.4462 37.2 38.9049 37.3642 38.4444 37.6719C37.9839 37.9796 37.6251 38.4169 37.4131 38.9285C37.2012 39.4401 37.1458 40.0031 37.2538 40.5463C37.3618 41.0894 37.6285 41.5883 38.0201 41.9799C38.4117 42.3715 38.9106 42.6382 39.4537 42.7462C39.9969 42.8542 40.5599 42.7988 41.0715 42.5869C41.5831 42.3749 42.0204 42.0161 42.3281 41.5556C42.6358 41.0951 42.8 40.5538 42.8 40H68Z" fill="#3359DF"/>
<path d="M40.0007 71C31.7392 71 24.2325 67.7683 18.6758 62.5" stroke="#535D76"/>
<path d="M40.0007 9C31.7392 9 24.2325 12.2317 18.6758 17.5" stroke="#535D76"/>
<path d="M43 9C46.677 9 50.318 9.72424 53.7151 11.1314C57.1122 12.5385 60.1989 14.601 62.799 17.201C65.399 19.801 67.4615 22.8877 68.8686 26.2849C70.2758 29.682 71 33.323 71 37L43 37L43 9Z" fill="white"/>
<path d="M56 18C53.9646 18 52.3086 19.656 52.3086 21.6914C52.3086 23.7268 53.9646 25.3828 56 25.3828C58.0354 25.3828 59.6914 23.7268 59.6914 21.6914C59.6914 19.656 58.0354 18 56 18Z" fill="#3359DF"/>
<path d="M60.5928 27.7944C59.5822 26.7682 58.2424 26.2031 56.8203 26.2031H55.1797C53.7576 26.2031 52.4178 26.7682 51.4072 27.7944C50.4015 28.8155 49.8477 30.1634 49.8477 31.5898C49.8477 31.8164 50.0313 32 50.2578 32H61.7422C61.9687 32 62.1523 31.8164 62.1523 31.5898C62.1523 30.1634 61.5985 28.8155 60.5928 27.7944Z" fill="#3359DF"/>
<path d="M65.0791 67.4356C65.6191 66.8498 65.9167 66.0641 65.9167 65.2229C65.9167 63.6213 64.7727 62 62.5858 62C61.5681 62 60.7096 62.3496 60.1029 63.0109C59.5654 63.5967 59.2695 64.3823 59.2695 65.2229C59.2695 66.8247 60.4087 68.4459 62.5858 68.4459C63.6074 68.446 64.4697 68.0967 65.0791 67.4356ZM62.5858 63.4986C63.7841 63.4986 64.3297 64.393 64.3297 65.2241C64.3297 65.6761 64.1776 66.0946 63.9012 66.4023C63.5927 66.746 63.1445 66.9277 62.6053 66.9277C61.3768 66.9277 60.8171 66.0333 60.8171 65.2024C60.8171 64.3544 61.3641 63.4986 62.5858 63.4986Z" fill="white"/>
<path d="M70.5397 63.2433C70.3415 63.2469 70.0709 63.3704 69.9384 63.5178L60.1007 74.4555C59.9682 74.603 60.0621 74.8097 60.2603 74.8097H61.5478C61.746 74.8097 62.0163 74.6888 62.1486 74.5412L71.9255 63.6057C72.0577 63.458 72.0489 63.2177 71.7215 63.2178L70.5397 63.2433Z" fill="white"/>
<path d="M69.4641 69.6766C68.4661 69.6766 67.6238 70.0197 67.0285 70.6684C66.5014 71.2429 66.2109 72.0137 66.2109 72.8383C66.2109 74.4095 67.3284 76 69.4642 76C70.4665 76 71.3122 75.6572 71.9101 75.0088C72.4399 74.4341 72.7317 73.6633 72.7317 72.8383C72.7317 71.2672 71.6093 69.6766 69.4641 69.6766ZM69.4834 74.5491C68.2882 74.5491 67.7436 73.6515 67.7436 72.818C67.7436 72.3641 67.8956 71.944 68.1719 71.6351C68.4798 71.2905 68.9266 71.1083 69.4642 71.1083C70.6595 71.1083 71.2038 72.0057 71.2038 72.8395C71.2038 73.2933 71.0517 73.7135 70.7757 74.0224C70.4677 74.3669 70.0208 74.5491 69.4834 74.5491Z" fill="white"/>
<g clip-path="url(#clip1)">
<path d="M22.0004 10.0004V-0.000377831M17 5H27.0008" stroke="white" stroke-linecap="round" stroke-linejoin="round"/>
</g>
</g>
<defs>
<clipPath id="clip0">
<rect width="80" height="80" fill="white"/>
</clipPath>
<clipPath id="clip1">
<rect width="10" height="10" fill="white" transform="translate(17)"/>
</clipPath>
</defs>
</svg>
