<svg width="80" height="80" viewBox="0 0 80 80" fill="none" xmlns="http://www.w3.org/2000/svg">
<g clip-path="url(#clip0)">
<path d="M23.5 4.65209C28.5112 2.30892 34.1027 1 40 1C61.5391 1 79 18.4609 79 40C79 61.5391 61.5391 79 40 79C18.4609 79 1 61.5391 1 40C1 32.4796 3.12857 25.4564 6.8161 19.5" stroke="#535D76"/>
<circle cx="70" cy="14" r="3.5" stroke="white"/>
<path d="M6 8.25V15.25C6 15.7332 6.39173 16.125 6.875 16.125H9.5V7.375H6.875C6.39173 7.375 6 7.76673 6 8.25Z" fill="white"/>
<path d="M18.3842 8.24969H15.7993C15.5733 8.24969 15.4601 8.09888 15.4221 8.03394C15.384 7.96942 15.3071 7.79724 15.4165 7.59985L16.3278 5.9588C16.5278 5.59949 16.5483 5.17694 16.3846 4.79968C16.221 4.42199 15.898 4.14813 15.4985 4.04858L14.856 3.88794C14.6996 3.84863 14.5338 3.89862 14.4249 4.01953L10.936 7.89551C10.5741 8.2984 10.375 8.81793 10.375 9.35882V13.9372C10.375 15.1433 11.3564 16.1247 12.5625 16.1247L16.9149 16.1243C17.8975 16.1243 18.7653 15.4625 19.0246 14.5153L19.9586 10.2291C19.9859 10.1099 20 9.98772 20 9.86553C20 8.97472 19.275 8.24968 18.3841 8.24968L18.3842 8.24969Z" fill="white"/>
<path d="M40 78.9999C45.1215 78.9999 50.193 77.9911 54.9247 76.0312C59.6563 74.0712 63.9557 71.1985 67.5772 67.577C71.1986 63.9556 74.0714 59.6562 76.0313 54.9245C77.9912 50.1928 79 45.1214 79 39.9999" stroke="#3359DF" stroke-width="2"/>
<circle cx="55.5" cy="9.5" r="0.5" fill="#3359DF"/>
<circle cx="49.5" cy="73.5" r="0.5" fill="#3359DF"/>
<circle cx="17.5" cy="67.5" r="0.5" fill="#3359DF"/>
<circle cx="40" cy="40" r="26.5" stroke="#3359DF" stroke-width="3"/>
<path d="M38.4201 37.3182C39.3459 36.314 39.856 34.967 39.856 33.525C39.856 30.7794 37.8949 28 34.146 28C32.4014 28 30.9296 28.5992 29.8895 29.7329C28.9682 30.7372 28.4609 32.0839 28.4609 33.525C28.4609 36.2709 30.4137 39.0502 34.146 39.0502C35.8972 39.0502 37.3755 38.4515 38.4201 37.3182ZM34.146 30.5689C36.2001 30.5689 37.1356 32.1023 37.1356 33.527C37.1356 34.3019 36.8748 35.0194 36.4009 35.5468C35.8721 36.1359 35.1037 36.4475 34.1794 36.4475C32.0733 36.4475 31.1139 34.9143 31.1139 33.4898C31.1139 32.0361 32.0516 30.5689 34.146 30.5689Z" fill="white"/>
<path d="M47.7804 30.1314C47.4406 30.1375 46.9768 30.3493 46.7496 30.6019L29.885 49.3524C29.6578 49.6051 29.8188 49.9595 30.1585 49.9595H32.3658C32.7055 49.9595 33.1689 49.7523 33.3957 49.4993L50.156 30.7527C50.3827 30.4995 50.3677 30.0875 49.8063 30.0876L47.7804 30.1314Z" fill="white"/>
<path d="M45.9382 41.1599C44.2273 41.1599 42.7833 41.7481 41.7629 42.8601C40.8592 43.845 40.3613 45.1663 40.3613 46.58C40.3613 49.2733 42.277 51.9999 45.9383 51.9999C47.6566 51.9999 49.1063 51.4124 50.1313 50.3008C51.0396 49.3156 51.5398 47.9942 51.5398 46.58C51.5397 43.8866 49.6157 41.1599 45.9382 41.1599ZM45.9713 49.5127C43.9223 49.5127 42.9887 47.974 42.9887 46.5451C42.9887 45.7669 43.2494 45.0468 43.7229 44.5173C44.2508 43.9265 45.0168 43.6142 45.9383 43.6142C47.9874 43.6142 48.9205 45.1526 48.9205 46.5819C48.9205 47.36 48.6599 48.0803 48.1867 48.6097C47.6586 49.2004 46.8925 49.5127 45.9713 49.5127Z" fill="white"/>
<path d="M20.2324 20.4813L58.7697 59.0186" stroke="#3359DF" stroke-width="3"/>
<path d="M40.0007 10C31.7392 10 24.2325 13.2317 18.6758 18.5" stroke="#535D76"/>
<path d="M40 71C22.8792 71 9 57.1208 9 40" stroke="#535D76"/>
</g>
<defs>
<clipPath id="clip0">
<rect width="80" height="80" fill="white"/>
</clipPath>
</defs>
</svg>
