<svg width="80" height="80" viewBox="0 0 80 80" fill="none" xmlns="http://www.w3.org/2000/svg">
<g clip-path="url(#clip0)">
<path d="M56.5 75.3479C51.4888 77.6911 45.8973 79 40 79C18.4609 79 0.999997 61.5391 0.999998 40C0.999999 18.4609 18.4609 0.999997 40 0.999998C61.5391 0.999999 79 18.4609 79 40C79 47.5204 76.8714 54.5436 73.1839 60.5" stroke="#535D76"/>
<path d="M13.2354 11.6337C9.51031 15.1485 6.51397 19.3626 4.41747 24.0354C2.32098 28.7082 1.16538 33.7481 1.01668 38.8675C0.867967 43.9869 1.72905 49.0855 3.55077 53.8721C5.37249 58.6587 8.11916 63.0396 11.634 66.7647" stroke="#3359DF" stroke-width="2"/>
<circle cx="73.5" cy="46.5" r="0.5" fill="#3359DF"/>
<circle cx="49.5" cy="73.5" r="0.5" fill="#3359DF"/>
<circle cx="9.5" cy="24.5" r="0.5" fill="#3359DF"/>
<path d="M40.0007 71C31.7392 71 24.2325 67.7683 18.6758 62.5" stroke="#535D76"/>
<path d="M40.0007 9C31.7392 9 24.2325 12.2317 18.6758 17.5" stroke="#535D76"/>
<g clip-path="url(#clip1)">
<path d="M64.0004 13.0004V2.99962M59 8H69.0008" stroke="white" stroke-linecap="round" stroke-linejoin="round"/>
</g>
<circle cx="40" cy="40" r="28" fill="#3359DF"/>
<path fill-rule="evenodd" clip-rule="evenodd" d="M37.4139 31.0518C32.7637 31.5904 28.9397 33.9553 26.405 37.86C25.0412 39.9609 24.2119 42.5276 24.0504 45.1479L24 45.9646L24.2021 45.0082C24.4742 43.7211 24.7003 43.0467 25.2363 41.9242C26.2781 39.7419 27.789 38.0078 29.787 36.7015C32.0521 35.2204 34.4242 34.5776 37.2233 34.6862C39.9316 34.7913 42.3171 35.6752 44.4679 37.3706C45.6216 38.28 46.7961 39.6038 47.4953 40.7828C47.6558 41.0533 47.834 41.2757 47.8913 41.2771C48.0957 41.2818 52.4693 40.3113 52.5408 40.2453C52.5809 40.2083 52.3588 39.6781 52.0475 39.067C49.9563 34.9632 45.9517 31.9944 41.4561 31.2152C40.3142 31.0173 38.3851 30.9393 37.4139 31.0518ZM50.2552 41.888C47.2594 42.5435 42.7594 43.5283 40.2551 44.0766C35.3811 45.1437 35.2385 45.1885 34.7277 45.814C33.681 47.0959 34.0873 49.0352 35.5552 49.7633C35.9627 49.9654 36.1468 50.0041 36.6806 49.9997C37.3047 49.9945 37.3521 49.9781 38.8083 49.2601C42.0809 47.6466 55.9596 40.7421 55.9928 40.711C56.0871 40.6225 55.3139 40.7811 50.2552 41.888Z" fill="white"/>
<path d="M66 62V77" stroke="white"/>
<path d="M71 66.7727V65.5C71 64.9477 70.5523 64.5 70 64.5H62.625C62.0727 64.5 61.625 64.9477 61.625 65.5V68.5C61.625 69.0523 62.0727 69.5 62.625 69.5H70C70.5523 69.5 71 69.9477 71 70.5V73.5C71 74.0523 70.5523 74.5 70 74.5H61" stroke="white"/>
</g>
<defs>
<clipPath id="clip0">
<rect width="80" height="80" fill="white"/>
</clipPath>
<clipPath id="clip1">
<rect width="10" height="10" fill="white" transform="translate(59 3)"/>
</clipPath>
</defs>
</svg>
