<svg width="80" height="80" viewBox="0 0 80 80" fill="none" xmlns="http://www.w3.org/2000/svg">
<g clip-path="url(#clip0)">
<path d="M69.25 65.7968C75.318 58.9217 79 49.8909 79 40C79 18.4609 61.5391 0.999999 40 0.999998C18.4609 0.999997 0.999997 18.4609 0.999996 40C0.999995 61.5391 18.4609 79 40 79C47.8927 79 55.2377 76.6555 61.3768 72.6248" stroke="#9199B3"/>
<path d="M6 8.25V15.25C6 15.7332 6.39173 16.125 6.875 16.125H9.5V7.375H6.875C6.39173 7.375 6 7.76673 6 8.25Z" fill="#F2F5FF"/>
<path d="M18.3842 8.24969H15.7993C15.5733 8.24969 15.4601 8.09887 15.4221 8.03393C15.384 7.96941 15.3071 7.79723 15.4165 7.59985L16.3278 5.95879C16.5278 5.59948 16.5483 5.17693 16.3846 4.79967C16.221 4.42199 15.898 4.14812 15.4985 4.04857L14.856 3.88793C14.6996 3.84862 14.5338 3.89861 14.4249 4.01952L10.936 7.8955C10.5741 8.29839 10.375 8.81792 10.375 9.35881V13.9372C10.375 15.1433 11.3564 16.1247 12.5625 16.1247L16.9149 16.1243C17.8975 16.1243 18.7653 15.4624 19.0246 14.5152L19.9586 10.2291C19.9859 10.1099 20 9.98771 20 9.86552C20 8.97471 19.275 8.24968 18.3841 8.24968L18.3842 8.24969Z" fill="#F2F5FF"/>
<path d="M79 40C79 34.8784 77.9912 29.807 76.0313 25.0753C74.0714 20.3436 71.1986 16.0443 67.5772 12.4228C63.9557 8.80134 59.6563 5.92863 54.9246 3.96869C50.1929 2.00876 45.1215 0.999996 40 0.999997" stroke="#3459DF" stroke-width="2"/>
<path d="M40 12L64.2487 26V54L40 68L15.7513 54V26L40 12Z" fill="#3459DF"/>
<path d="M41.8886 27.2092C41.2162 26.4088 40.5759 25.6724 39.9996 25C39.4233 25.7044 38.7829 26.4408 38.1106 27.2092C34.0444 31.8837 28.4414 38.3831 28.4414 43.4418C28.4414 46.6435 29.7221 49.5251 31.8352 51.6062C33.9163 53.6873 36.7979 55 39.9996 55C43.2013 55 46.0828 53.7193 48.1639 51.6062C50.245 49.5251 51.5577 46.6115 51.5577 43.4418C51.5577 38.3831 45.9547 31.9157 41.8886 27.2092Z" fill="#F2F5FF"/>
<path d="M43.1502 37H38.65L36.8506 43.4789H38.6537L37.1206 49L36.8506 49.9345L42.8798 42.5209H40.2358L43.1502 37Z" fill="#3459DF"/>
<circle cx="56.5" cy="8.5" r="0.5" fill="#3459DF"/>
<circle cx="6.5" cy="37.5" r="0.5" fill="#3459DF"/>
<circle cx="40.5" cy="75.5" r="0.5" fill="#3459DF"/>
<path d="M13 28.5V25L16 23" stroke="#3459DF"/>
<path d="M67 28.5V25L64 23" stroke="#3459DF"/>
<path d="M67 51L67 54.5L64 56.5" stroke="#3459DF"/>
<path d="M13 51L13 54.5L16 56.5" stroke="#3459DF"/>
<path d="M66 73L63.4019 68.5L68.5981 68.5L66 73Z" fill="#F2F5FF"/>
</g>
<defs>
<clipPath id="clip0">
<rect width="80" height="80" fill="white"/>
</clipPath>
</defs>
</svg>
