<svg width="80" height="80" viewBox="0 0 80 80" fill="none" xmlns="http://www.w3.org/2000/svg">
<g clip-path="url(#clip0)">
<path d="M5.39228 57.9999C2.58563 52.6149 0.999021 46.4927 0.99902 39.9999C0.999018 18.4608 18.4599 0.999914 39.999 0.999912C48.5996 0.999911 56.55 3.78392 62.9981 8.49991M16.5 71.1281C23.035 76.0693 31.1748 78.9999 39.999 78.9999C61.5381 78.9999 78.999 61.539 78.999 39.9999C78.999 30.7193 75.7574 22.1958 70.3446 15.4999" stroke="#9199B3"/>
<path d="M66.75 8.72169C66.9047 8.63237 67.0953 8.63237 67.25 8.72169L69.7141 10.1443C69.8688 10.2337 69.9641 10.3987 69.9641 10.5774V13.4226C69.9641 13.6013 69.8688 13.7663 69.7141 13.8557L67.25 15.2783C67.0953 15.3676 66.9047 15.3676 66.75 15.2783L64.2859 13.8557C64.1312 13.7663 64.0359 13.6013 64.0359 13.4226V10.5774C64.0359 10.3987 64.1312 10.2337 64.2859 10.1443L66.75 8.72169Z" stroke="#F2F5FF"/>
<g clip-path="url(#clip1)">
<path d="M14.5598 65.7742C15.1478 65.1997 15.5156 64.401 15.5156 63.5161C15.5156 61.9278 14.3339 60.622 12.806 60.4005V59H10.9995V60.3548H9.19306V59H7.3866V60.3548H6.4834V62.1613H7.38663V69.3871H6.4834V71.1936H7.38663V73H9.19309V71.1936H10.9996V73H12.806V71.1479C14.334 70.9264 15.5157 69.6206 15.5157 68.0323C15.5156 67.1473 15.1478 66.3486 14.5598 65.7742ZM13.7092 63.5161C13.7092 64.2632 13.1015 64.871 12.3544 64.871H9.19306V62.1613H12.3544C13.1015 62.1613 13.7092 62.769 13.7092 63.5161ZM12.3544 69.3871H9.19306V66.6774H12.3544C13.1015 66.6774 13.7092 67.2851 13.7092 68.0322C13.7092 68.7794 13.1015 69.3871 12.3544 69.3871Z" fill="#3459DF"/>
</g>
<path d="M40 79C45.1215 79 50.193 77.9912 54.9247 76.0313C59.6563 74.0714 63.9557 71.1987 67.5772 67.5772C71.1986 63.9557 74.0714 59.6564 76.0313 54.9247C77.9912 50.193 79 45.1216 79 40" stroke="#3459DF" stroke-width="2"/>
<circle cx="65.5" cy="62.5" r="0.5" fill="#3459DF"/>
<circle cx="6.5" cy="37.5" r="0.5" fill="#3459DF"/>
<circle cx="23.5" cy="9.5" r="0.5" fill="#3459DF"/>
<circle cx="40" cy="40" r="28" fill="#3459DF"/>
<path d="M40 71C22.8792 71 9 57.1208 9 40" stroke="#9199B3"/>
<path fill-rule="evenodd" clip-rule="evenodd" d="M35.0635 26.0157C33.8406 26.248 32.8781 26.7435 31.9866 27.5998C31.5393 28.0293 31.0636 28.6747 30.7806 29.236C30.6854 29.4248 30.1775 30.8663 29.6519 32.4392L28.6962 35.299H40.0006H51.3049L50.3451 32.4321C49.8172 30.8553 49.309 29.4138 49.2158 29.229C48.6481 28.103 47.6362 27.0875 46.5312 26.5351C45.3431 25.9411 43.7626 25.7737 42.4823 26.1062C41.6882 26.3124 40.6581 26.8396 40.1719 27.2887L40 27.4474L39.8281 27.2887C39.343 26.8406 38.3147 26.3138 37.5177 26.1051C36.8779 25.9375 35.7008 25.8946 35.0635 26.0157ZM24 37.8642C24 39.3263 24.4108 40.4002 25.3342 41.3515C26.0312 42.0695 26.8145 42.5044 27.763 42.6998C28.1931 42.7884 29.5057 42.799 40 42.799C52.705 42.799 52.1699 42.8122 53.0243 42.4778C53.8283 42.1632 54.7684 41.3913 55.2344 40.6632C55.7619 39.8391 55.9342 39.2395 55.9814 38.0647L56.0173 37.174H40.0086H24V37.8642ZM31.6631 45.7711C30.8384 45.8834 29.9793 46.0828 29.2188 46.3384L28.5938 46.5485L27.2656 46.5488L25.9375 46.549V47.4865V48.424H26.875H27.8125V48.6346C27.8125 48.7504 27.8553 49.0902 27.9075 49.3898C28.2832 51.5441 29.8889 53.2843 32.0448 53.8735C32.7464 54.0653 34.133 54.0638 34.8438 53.8705C37.1579 53.2412 38.8222 51.2658 39.0372 48.8931L39.0798 48.424H40.0086H40.9375V48.6346C40.9375 48.7504 40.9802 49.0902 41.0325 49.3898C41.4082 51.5441 43.0139 53.2843 45.1698 53.8735C45.8714 54.0653 47.258 54.0638 47.9688 53.8705C50.2901 53.2392 51.9466 51.2732 52.1623 48.8931L52.2048 48.424H53.1336H54.0625V47.4865V46.549H52.7262C51.4689 46.549 51.3663 46.5402 50.9918 46.3993C50.7729 46.317 50.2422 46.1627 49.8125 46.0565C47.3584 45.4495 44.6206 45.5588 42.2817 46.3572L41.7197 46.549H39.9872C38.4052 46.549 38.2273 46.5382 37.9392 46.4247C37.387 46.207 36.2244 45.9237 35.3644 45.7972C34.3757 45.6517 32.6301 45.6394 31.6631 45.7711Z" fill="#F2F5FF"/>
<path d="M40 9C57.1208 9 71 22.8792 71 40" stroke="#9199B3"/>
</g>
<defs>
<clipPath id="clip0">
<rect width="80" height="80" fill="white"/>
</clipPath>
<clipPath id="clip1">
<rect width="14" height="14" fill="white" transform="translate(4 59)"/>
</clipPath>
</defs>
</svg>
