<svg width="80" height="80" viewBox="0 0 80 80" fill="none" xmlns="http://www.w3.org/2000/svg">
<g clip-path="url(#clip0)">
<path d="M23.5 4.65209C28.5112 2.30892 34.1027 1 40 1C61.5391 1 79 18.4609 79 40C79 61.5391 61.5391 79 40 79C18.4609 79 1 61.5391 1 40C1 32.4796 3.12857 25.4564 6.8161 19.5" stroke="#9199B3"/>
<path d="M40 78.9999C45.1215 78.9999 50.1929 77.9911 54.9246 76.0312C59.6563 74.0712 63.9557 71.1985 67.5772 67.577C71.1986 63.9556 74.0714 59.6562 76.0313 54.9245C77.9912 50.1928 79 45.1214 79 39.9999" stroke="#3459DF" stroke-width="2"/>
<circle cx="9.14746" cy="54.7253" r="0.5" fill="#3459DF"/>
<circle cx="68.5" cy="40.5" r="0.5" fill="#3459DF"/>
<path d="M39.9998 10C31.7382 10 24.2315 13.2317 18.6748 18.5" stroke="#9199B3"/>
<path d="M40.9125 71C36.6288 71 32.5481 70.1311 28.8369 68.5601" stroke="#9199B3"/>
<path fill-rule="evenodd" clip-rule="evenodd" d="M55.4648 14.2006C56.348 14.3296 57.1012 14.4667 57.1387 14.5051C57.1763 14.5435 57.1297 15.1292 57.0352 15.8066C56.9407 16.4842 56.8765 17.0512 56.8925 17.0666C56.9085 17.0821 57.1986 17.2169 57.5371 17.3663C57.8756 17.5157 58.4236 17.8114 58.755 18.0232L59.3573 18.4086L60.327 17.544C60.8603 17.0684 61.3229 16.6913 61.3549 16.7057C61.4028 16.7275 63.0694 18.5489 63.9058 19.4937L64.1234 19.7396L63.4757 20.3244C63.1194 20.6461 62.6824 21.0338 62.5046 21.1859L62.1814 21.4626L62.5208 22.2146C62.7073 22.6281 62.9446 23.2299 63.0478 23.5519L63.2356 24.1373L64.533 24.0988L65.8303 24.0603L65.8816 24.3337C65.91 24.4841 65.948 25.4193 65.9664 26.4119L65.9998 28.2166L64.6974 28.2712L63.3951 28.3259L63.1581 29.2009C63.0277 29.6822 62.8386 30.2665 62.7378 30.4994C62.6369 30.7324 62.5544 30.9554 62.5544 30.9951C62.5544 31.0348 62.9974 31.4087 63.5388 31.8259C64.0802 32.2432 64.5232 32.6223 64.5232 32.6684C64.5232 32.7147 63.9739 33.4545 63.3027 34.3126C62.6314 35.1707 62.0699 35.8888 62.055 35.9082C62.0402 35.9277 61.5871 35.5954 61.0485 35.17C60.5097 34.7444 60.0078 34.3962 59.9329 34.3962C59.8581 34.3962 59.6175 34.5382 59.3983 34.7117C59.1791 34.885 58.6659 35.2104 58.2579 35.4345C57.7171 35.7316 57.5301 35.8907 57.5676 36.0216C57.6829 36.423 58.075 38.3651 58.0463 38.3923C58.0293 38.4083 57.1178 38.6151 56.0209 38.8516C54.274 39.2283 54.0202 39.2601 53.9768 39.1084C53.9496 39.0133 53.8233 38.4448 53.6963 37.8451C53.5692 37.2455 53.4554 36.7486 53.4434 36.7409C53.4315 36.7333 52.9294 36.6636 52.3279 36.586C51.7263 36.5085 51.0865 36.4246 50.906 36.3996C50.5884 36.3555 50.5587 36.391 49.9835 37.5045L49.3891 38.6549L48.8351 38.3451C48.5304 38.1748 47.702 37.7297 46.9943 37.356L45.7075 36.6767L46.3223 35.5306L46.9371 34.3844L46.2915 33.7067C45.9363 33.334 45.5098 32.8483 45.3435 32.6272L45.0412 32.2255L43.8381 32.7208C43.1764 32.9934 42.618 33.1988 42.5973 33.1774C42.5767 33.1559 42.212 32.2863 41.7871 31.2448L41.0143 29.3512L41.3117 29.2427C41.4753 29.183 42.0029 28.974 42.4841 28.7781L43.3591 28.422L43.3427 26.966L43.3262 25.5101L42.1396 25.1281C41.4868 24.9181 40.9348 24.7298 40.9128 24.7096C40.8783 24.6779 42.0811 20.8246 42.1479 20.7526C42.1615 20.7379 42.683 20.8979 43.3068 21.1081C43.9307 21.3181 44.4988 21.49 44.5693 21.49C44.6396 21.49 44.8343 21.2808 45.0018 21.0251C45.1693 20.7695 45.5487 20.2787 45.8449 19.9343C46.1758 19.5498 46.3533 19.2545 46.305 19.1687C46.2619 19.0919 45.9629 18.6053 45.6406 18.0876C45.3181 17.5697 45.0544 17.12 45.0544 17.0883C45.0544 17.0063 48.399 14.9275 48.531 14.9275C48.5912 14.9275 48.6669 14.9965 48.6993 15.0808C48.7316 15.1653 49.0289 15.654 49.3598 16.1668L49.9613 17.0995L50.6493 16.8912C51.0277 16.7766 51.6235 16.6505 51.9733 16.6109C52.3956 16.5632 52.639 16.4795 52.698 16.3622C52.7469 16.2649 52.8492 15.6808 52.9252 15.0642L53.0634 13.9431L53.4613 13.9545C53.6801 13.9607 54.5817 14.0714 55.4648 14.2006ZM53.4558 31.5682C56.2172 31.5682 58.4558 29.3297 58.4558 26.5682C58.4558 23.8068 56.2172 21.5682 53.4558 21.5682C50.6944 21.5682 48.4558 23.8068 48.4558 26.5682C48.4558 29.3297 50.6944 31.5682 53.4558 31.5682Z" fill="#3459DF"/>
<path fill-rule="evenodd" clip-rule="evenodd" d="M59.1095 46.1358C59.6872 46.2202 60.1799 46.3099 60.2044 46.335C60.229 46.3601 60.1985 46.7432 60.1367 47.1863C60.0749 47.6295 60.0329 48.0004 60.0434 48.0105C60.0539 48.0206 60.2436 48.1088 60.465 48.2065C60.6864 48.3042 61.0448 48.4976 61.2616 48.6362L61.6556 48.8882L62.2899 48.3227C62.6387 48.0116 62.9412 47.7649 62.9622 47.7744C62.9935 47.7886 64.0836 48.98 64.6307 49.598L64.773 49.7588L64.3494 50.1413C64.1163 50.3517 63.8305 50.6053 63.7142 50.7048L63.5028 50.8858L63.7247 51.3777C63.8468 51.6482 64.002 52.0418 64.0695 52.2524L64.1923 52.6353L65.041 52.6101L65.8895 52.5849L65.9231 52.7638C65.9416 52.8621 65.9665 53.4738 65.9785 54.1231L66.0003 55.3035L65.1485 55.3392L64.2966 55.375L64.1416 55.9473C64.0563 56.2621 63.9326 56.6443 63.8667 56.7967C63.8007 56.9491 63.7468 57.0949 63.7468 57.1209C63.7468 57.1469 64.0365 57.3914 64.3906 57.6643C64.7448 57.9372 65.0345 58.1852 65.0345 58.2154C65.0345 58.2457 64.6752 58.7296 64.2362 59.2908C63.7971 59.8521 63.4299 60.3218 63.4201 60.3345C63.4104 60.3472 63.1141 60.1299 62.7617 59.8516C62.4093 59.5732 62.081 59.3455 62.0321 59.3455C61.9832 59.3455 61.8258 59.4384 61.6824 59.5519C61.539 59.6652 61.2034 59.8781 60.9364 60.0247C60.5827 60.219 60.4604 60.3231 60.485 60.4086C60.5604 60.6712 60.8168 61.9415 60.7981 61.9593C60.7869 61.9698 60.1908 62.105 59.4733 62.2597C58.3306 62.5061 58.1647 62.5269 58.1363 62.4277C58.1185 62.3655 58.0358 61.9936 57.9528 61.6014C57.8696 61.2092 57.7952 60.8842 57.7874 60.8791C57.7796 60.8741 57.4512 60.8286 57.0577 60.7778C56.6642 60.7271 56.2457 60.6723 56.1277 60.6559C55.9199 60.627 55.9006 60.6503 55.5243 61.3786L55.1355 62.131L54.7731 61.9284C54.5738 61.817 54.032 61.5259 53.5691 61.2815L52.7274 60.8372L53.1296 60.0875L53.5317 59.3378L53.1094 58.8945C52.8771 58.6507 52.5981 58.333 52.4893 58.1884L52.2916 57.9257L51.5047 58.2497C51.0718 58.4279 50.7066 58.5623 50.6931 58.5483C50.6796 58.5343 50.4411 57.9654 50.1631 57.2842L49.6577 56.0456L49.8522 55.9747C49.9592 55.9356 50.3043 55.7989 50.6191 55.6708L51.1914 55.4378L51.1806 54.4855L51.1698 53.5332L50.3937 53.2834C49.9667 53.146 49.6057 53.0228 49.5913 53.0096C49.5687 52.9889 50.3554 50.4685 50.3991 50.4214C50.408 50.4118 50.7491 50.5165 51.1572 50.6539C51.5653 50.7913 51.9368 50.9037 51.9829 50.9037C52.0289 50.9037 52.1562 50.7669 52.2659 50.5997C52.3754 50.4325 52.6236 50.1114 52.8173 49.8862C53.0337 49.6347 53.1498 49.4415 53.1183 49.3854C53.0901 49.3352 52.8945 49.0169 52.6836 48.6782C52.4727 48.3395 52.3003 48.0454 52.3003 48.0246C52.3003 47.971 54.4879 46.6113 54.5743 46.6113C54.6136 46.6113 54.6631 46.6564 54.6843 46.7116C54.7055 46.7668 54.8999 47.0864 55.1163 47.4219L55.5098 48.0319L55.9598 47.8957C56.2073 47.8207 56.597 47.7383 56.8258 47.7124C57.102 47.6812 57.2613 47.6264 57.2998 47.5497C57.3318 47.4861 57.3987 47.104 57.4484 46.7007L57.5388 45.9674L57.7991 45.9748C57.9422 45.9789 58.5319 46.0513 59.1095 46.1358ZM57.7955 57.4958C59.6017 57.4958 61.0659 56.0315 61.0659 54.2253C61.0659 52.4191 59.6017 50.9549 57.7955 50.9549C55.9893 50.9549 54.5251 52.4191 54.5251 54.2253C54.5251 56.0315 55.9893 57.4958 57.7955 57.4958Z" fill="#3459DF"/>
<path fill-rule="evenodd" clip-rule="evenodd" d="M31.876 32.8209C32.9867 32.9832 33.9341 33.1555 33.9812 33.2038C34.0284 33.2521 33.9698 33.9887 33.851 34.8407C33.7321 35.6928 33.6514 36.4059 33.6716 36.4253C33.6917 36.4447 34.0565 36.6143 34.4822 36.8022C34.9079 36.9901 35.5971 37.3619 36.0139 37.6283L36.7714 38.1129L37.9909 37.0256C38.6616 36.4275 39.2433 35.9532 39.2836 35.9714C39.3439 35.9987 41.4398 38.2894 42.4916 39.4776L42.7654 39.7868L41.9508 40.5223C41.5026 40.9269 40.9531 41.4145 40.7294 41.6058L40.323 41.9538L40.7498 42.8995C40.9845 43.4196 41.2828 44.1764 41.4127 44.5814L41.6488 45.3175L43.2805 45.2691L44.912 45.2207L44.9765 45.5646C45.0121 45.7537 45.06 46.9298 45.0831 48.1781L45.1251 50.4477L43.4872 50.5165L41.8494 50.5853L41.5513 51.6857C41.3874 52.2909 41.1495 53.0257 41.0227 53.3187C40.8959 53.6117 40.7922 53.8922 40.7922 53.9421C40.7922 53.992 41.3492 54.4622 42.0301 54.987C42.711 55.5117 43.2681 55.9885 43.2681 56.0465C43.2681 56.1047 42.5773 57.0351 41.7332 58.1142C40.889 59.1935 40.1828 60.0965 40.1641 60.121C40.1454 60.1455 39.5756 59.7276 38.8982 59.1925C38.2206 58.6573 37.5894 58.2194 37.4953 58.2194C37.4012 58.2194 37.0986 58.398 36.8229 58.6161C36.5473 58.8342 35.9019 59.2434 35.3887 59.5252C34.7086 59.8988 34.4734 60.099 34.5206 60.2635C34.6656 60.7683 35.1587 63.2108 35.1226 63.2449C35.1012 63.2652 33.955 63.5251 32.5754 63.8227C30.3785 64.2964 30.0593 64.3364 30.0047 64.1456C29.9705 64.026 29.8116 63.311 29.6519 62.5568C29.4921 61.8027 29.349 61.1778 29.3339 61.1682C29.3189 61.1585 28.6875 61.0709 27.931 60.9734C27.1744 60.8759 26.3697 60.7704 26.1428 60.7389C25.7433 60.6834 25.7061 60.7281 24.9827 62.1284L24.2351 63.5752L23.5384 63.1856C23.1551 62.9715 22.1133 62.4116 21.2233 61.9418L19.605 61.0874L20.3782 59.646L21.1514 58.2046L20.3394 57.3523C19.8928 56.8835 19.3563 56.2727 19.1473 55.9947L18.7671 55.4894L17.254 56.1124C16.4218 56.4552 15.7196 56.7135 15.6936 56.6866C15.6676 56.6596 15.209 55.5659 14.6746 54.2561L13.7028 51.8747L14.0768 51.7382C14.2824 51.6631 14.946 51.4003 15.5512 51.1539L16.6516 50.706L16.631 48.8749L16.6102 47.044L15.1179 46.5636C14.297 46.2995 13.6028 46.0627 13.5751 46.0372C13.5317 45.9975 15.0443 41.1513 15.1284 41.0608C15.1454 41.0424 15.8013 41.2436 16.5859 41.5079C17.3705 41.772 18.0849 41.9882 18.1735 41.9882C18.262 41.9882 18.5068 41.7251 18.7176 41.4036C18.9281 41.0822 19.4053 40.4648 19.7778 40.0318C20.1939 39.5482 20.4171 39.1768 20.3565 39.0689C20.3023 38.9724 19.9262 38.3604 19.5209 37.7092C19.1154 37.0579 18.7837 36.4924 18.7837 36.4525C18.7837 36.3494 22.9899 33.735 23.156 33.735C23.2316 33.735 23.3268 33.8218 23.3675 33.9279C23.4082 34.0341 23.7821 34.6487 24.1982 35.2937L24.9547 36.4666L25.82 36.2047C26.2959 36.0605 27.0451 35.9019 27.485 35.8521C28.0161 35.7921 28.3223 35.6869 28.3965 35.5393C28.4579 35.417 28.5866 34.6824 28.6822 33.907L28.856 32.4971L29.3564 32.5114C29.6315 32.5192 30.7654 32.6584 31.876 32.8209ZM29.349 54.6629C32.8218 54.6629 35.6371 51.8476 35.6371 48.3747C35.6371 44.9019 32.8218 42.0866 29.349 42.0866C25.8761 42.0866 23.0608 44.9019 23.0608 48.3747C23.0608 51.8476 25.8761 54.6629 29.349 54.6629Z" fill="#F2F5FF"/>
<circle cx="18.6748" cy="24.7434" r="0.5" fill="#3459DF"/>
<path fill-rule="evenodd" clip-rule="evenodd" d="M13 17C15.1217 17 17.1566 16.1571 18.6569 14.6569C20.1571 13.1566 21 11.1217 21 9C21 6.87827 20.1571 4.84344 18.6569 3.34315C17.1566 1.84285 15.1217 1 13 1C10.8783 1 8.84344 1.84285 7.34315 3.34315C5.84285 4.84344 5 6.87827 5 9C5 11.1217 5.84285 13.1566 7.34315 14.6569C8.84344 16.1571 10.8783 17 13 17ZM14 5H13.5H13H12.5H12V9C12.0001 9.26519 12.1055 9.51951 12.293 9.707L15.121 12.536C15.2139 12.6289 15.4456 12.7529 15.4456 12.7529L15.2964 12.6758L15.2631 12.6445L15.1964 12.5986L16.1172 11.5938L16.536 11.121L14 8.586V5Z" fill="#F2F5FF"/>
<circle cx="11.1133" cy="67" r="3.5" stroke="#3459DF"/>
</g>
<defs>
<clipPath id="clip0">
<rect width="80" height="80" fill="white"/>
</clipPath>
</defs>
</svg>
