<svg width="222" height="42" viewBox="0 0 222 42" fill="none" xmlns="http://www.w3.org/2000/svg">
<path d="M12.475 38L5.762 13.157V38H0.911V3.7H7.673L13.21 24.231V3.7H18.012V38H12.475ZM26.8201 11.589V30.111C26.8201 32.365 27.7511 33.492 29.6131 33.492C31.4751 33.492 32.4061 32.365 32.4061 30.111V11.589C32.4061 9.335 31.4751 8.208 29.6131 8.208C27.7511 8.208 26.8201 9.335 26.8201 11.589ZM21.4301 29.768V11.932C21.4301 9.188 22.1325 7.06466 23.5371 5.562C24.9418 4.05933 26.9671 3.308 29.6131 3.308C32.2591 3.308 34.2845 4.05933 35.6891 5.562C37.0938 7.06466 37.7961 9.188 37.7961 11.932V29.768C37.7961 32.512 37.0938 34.6353 35.6891 36.138C34.2845 37.6407 32.2591 38.392 29.6131 38.392C26.9671 38.392 24.9418 37.6407 23.5371 36.138C22.1325 34.6353 21.4301 32.512 21.4301 29.768ZM58.0569 38H52.5689C52.2422 37.02 52.0789 35.6153 52.0789 33.786V28.396C52.0789 26.828 51.8012 25.7173 51.2459 25.064C50.6905 24.378 49.7922 24.035 48.5509 24.035H46.6889V38H41.2989V3.7H49.4329C52.2095 3.7 54.2349 4.35333 55.5089 5.66C56.7829 6.934 57.4199 8.91033 57.4199 11.589V14.284C57.4199 17.812 56.2439 20.1313 53.8919 21.242C56.2765 22.2547 57.4689 24.6883 57.4689 28.543V33.835C57.4689 35.697 57.6649 37.0853 58.0569 38ZM49.2859 8.6H46.6889V19.135H48.7959C49.8739 19.135 50.6742 18.8573 51.1969 18.302C51.7522 17.7467 52.0299 16.8157 52.0299 15.509V12.128C52.0299 9.776 51.1152 8.6 49.2859 8.6ZM61.0137 38V3.7H69.5397C74.897 3.7 77.5757 6.52566 77.5757 12.177V29.523C77.5757 35.1743 74.897 38 69.5397 38H61.0137ZM69.4417 8.6H66.4037V33.1H69.4417C71.271 33.1 72.1857 31.9893 72.1857 29.768V11.932C72.1857 9.71067 71.271 8.6 69.4417 8.6ZM89.3457 41.185V0.514998H93.7557V41.185H89.3457Z" fill="#294AC0"/>
<path d="M104.83 11.932C104.83 9.15533 105.499 7.032 106.839 5.562C108.178 4.05933 110.154 3.308 112.768 3.308C115.381 3.308 117.357 4.05933 118.697 5.562C120.036 7.032 120.706 9.15533 120.706 11.932V13.01H115.61V11.589C115.61 9.335 114.711 8.208 112.915 8.208C111.118 8.208 110.22 9.335 110.22 11.589C110.22 12.5363 110.416 13.4347 110.808 14.284C111.2 15.1333 111.706 15.901 112.327 16.587C112.947 17.273 113.633 17.959 114.385 18.645C115.136 19.2983 115.871 20.0007 116.59 20.752C117.341 21.4707 118.027 22.2547 118.648 23.104C119.268 23.9207 119.775 24.9007 120.167 26.044C120.559 27.1873 120.755 28.4287 120.755 29.768C120.755 32.5447 120.069 34.6843 118.697 36.187C117.325 37.657 115.332 38.392 112.719 38.392C110.105 38.392 108.113 37.657 106.741 36.187C105.369 34.6843 104.683 32.5447 104.683 29.768V27.661H109.779V30.111C109.779 32.3323 110.71 33.443 112.572 33.443C114.434 33.443 115.365 32.3323 115.365 30.111C115.365 28.837 115.005 27.6447 114.287 26.534C113.568 25.3907 112.686 24.3617 111.641 23.447C110.628 22.5323 109.599 21.585 108.554 20.605C107.508 19.5923 106.626 18.351 105.908 16.881C105.189 15.3783 104.83 13.7287 104.83 11.932ZM122.275 8.6V3.7H138.935V8.6H133.3V38H127.91V8.6H122.275ZM158.067 38H152.579C152.252 37.02 152.089 35.6153 152.089 33.786V28.396C152.089 26.828 151.811 25.7173 151.256 25.064C150.7 24.378 149.802 24.035 148.561 24.035H146.699V38H141.309V3.7H149.443C152.219 3.7 154.245 4.35333 155.519 5.66C156.793 6.934 157.43 8.91033 157.43 11.589V14.284C157.43 17.812 156.254 20.1313 153.902 21.242C156.286 22.2547 157.479 24.6883 157.479 28.543V33.835C157.479 35.697 157.675 37.0853 158.067 38ZM149.296 8.6H146.699V19.135H148.806C149.884 19.135 150.684 18.8573 151.207 18.302C151.762 17.7467 152.04 16.8157 152.04 15.509V12.128C152.04 9.776 151.125 8.6 149.296 8.6ZM166.413 8.6V18.155H173.812V23.055H166.413V33.1H175.723V38H161.023V3.7H175.723V8.6H166.413ZM191.02 3.7L196.508 38H191.069L190.138 31.777H183.523L182.592 38H177.643L183.131 3.7H191.02ZM186.806 9.776L184.209 27.122H189.403L186.806 9.776ZM206.466 3.7L210.435 28.053L214.11 3.7H221.607V38H216.511V13.402L212.787 38H207.691L203.673 13.745V38H198.969V3.7H206.466Z" fill="white"/>
</svg>
