<svg width="389" height="282" viewBox="0 0 389 282" fill="none" xmlns="http://www.w3.org/2000/svg">
	<g opacity="0.2">
		<g opacity="0.3">
			<path opacity="0.3" fill-rule="evenodd" clip-rule="evenodd" d="M151.204 74.7854C152.198 74.7854 153.004 75.5915 153.004 76.5858V87.1308H160.264C161.369 87.1308 162.264 88.0262 162.264 89.1308V154.573C162.264 155.678 161.369 156.573 160.264 156.573H153.004V191.294C153.004 192.289 152.198 193.095 151.204 193.095C150.21 193.095 149.404 192.289 149.404 191.294V156.573H142.66C141.556 156.573 140.66 155.678 140.66 154.573V89.1308C140.66 88.0262 141.556 87.1308 142.66 87.1308H149.404V76.5858C149.404 75.5914 150.21 74.7854 151.204 74.7854Z" fill="url(#paint0_linear)" />
		</g>
		<g opacity="0.2">
			<path opacity="0.3" fill-rule="evenodd" clip-rule="evenodd" d="M188.067 25.4302C189.021 25.4302 189.795 26.204 189.795 27.1585V47.0346H197.301C198.405 47.0346 199.301 47.93 199.301 49.0346V110.876C199.301 111.981 198.405 112.876 197.301 112.876H189.795V162.792C189.795 163.747 189.021 164.521 188.067 164.521C187.112 164.521 186.339 163.747 186.339 162.792V112.876H179.696C178.592 112.876 177.696 111.981 177.696 110.876V49.0346C177.696 47.93 178.592 47.0346 179.696 47.0346H186.339V27.1585C186.339 26.204 187.112 25.4302 188.067 25.4302Z" fill="url(#paint1_linear)" />
		</g>
		<g opacity="0.2">
			<path opacity="0.3" fill-rule="evenodd" clip-rule="evenodd" d="M46.9253 105.108C47.8798 105.108 48.6536 105.881 48.6536 106.836V121.568H56.159C57.2636 121.568 58.159 122.464 58.159 123.568V215.862C58.159 216.966 57.2636 217.862 56.159 217.862H48.6536V242.47C48.6536 243.424 47.8798 244.198 46.9253 244.198C45.9707 244.198 45.1969 243.424 45.1969 242.47V217.862H38.5547C37.4501 217.862 36.5547 216.966 36.5547 215.862V123.568C36.5547 122.464 37.4501 121.568 38.5547 121.568H45.1969V106.836C45.1969 105.881 45.9707 105.108 46.9253 105.108Z" fill="url(#paint2_linear)" />
		</g>
		<g opacity="0.3">
			<path opacity="0.3" fill-rule="evenodd" clip-rule="evenodd" d="M235.714 62.4402C236.669 62.4402 237.443 63.214 237.443 64.1685V78.9007H244.948C246.053 78.9007 246.948 79.7961 246.948 80.9007V173.194C246.948 174.299 246.053 175.194 244.948 175.194H237.443V199.802C237.443 200.757 236.669 201.531 235.714 201.531C234.76 201.531 233.986 200.757 233.986 199.802V175.194H227.344C226.239 175.194 225.344 174.299 225.344 173.194V80.9007C225.344 79.7961 226.239 78.9007 227.344 78.9007H233.986V64.1685C233.986 63.214 234.76 62.4402 235.714 62.4402Z" fill="url(#paint3_linear)" />
		</g>
		<g opacity="0.2">
			<path opacity="0.3" fill-rule="evenodd" clip-rule="evenodd" d="M9.88912 142.144C10.8437 142.144 11.6175 142.917 11.6175 143.872V148.316H19.1229C20.2274 148.316 21.1229 149.212 21.1229 150.316V242.61C21.1229 243.714 20.2274 244.61 19.1229 244.61H11.6175V279.506C11.6175 280.46 10.8437 281.234 9.88912 281.234C8.93458 281.234 8.16077 280.46 8.16077 279.506V244.61H1.51855C0.413985 244.61 -0.481445 243.714 -0.481445 242.61V150.316C-0.481445 149.212 0.413984 148.316 1.51855 148.316H8.16077V143.872C8.16077 142.917 8.93458 142.144 9.88912 142.144Z" fill="url(#paint4_linear)" />
		</g>
		<g opacity="0.4">
			<path opacity="0.3" fill-rule="evenodd" clip-rule="evenodd" d="M340.914 0C341.868 0 342.642 0.773812 342.642 1.72835V16.4605H350.147C351.252 16.4605 352.147 17.3559 352.147 18.4605V110.754C352.147 111.859 351.252 112.754 350.147 112.754H342.642V137.362C342.642 138.317 341.868 139.091 340.914 139.091C339.959 139.091 339.185 138.317 339.185 137.362V112.754H332.543C331.438 112.754 330.543 111.859 330.543 110.754V18.4605C330.543 17.3559 331.438 16.4605 332.543 16.4605H339.185V1.72834C339.185 0.773806 339.959 0 340.914 0Z" fill="url(#paint5_linear)" />
		</g>
		<g opacity="0.4">
			<path opacity="0.3" fill-rule="evenodd" clip-rule="evenodd" d="M303.878 37.0359C304.833 37.0359 305.607 37.8097 305.607 38.7642V43.2086H313.112C314.217 43.2086 315.112 44.104 315.112 45.2086V137.502C315.112 138.607 314.217 139.502 313.112 139.502H305.607V174.398C305.607 175.353 304.833 176.126 303.878 176.126C302.924 176.126 302.15 175.353 302.15 174.398V139.502H295.508C294.403 139.502 293.508 138.607 293.508 137.502V45.2086C293.508 44.104 294.403 43.2086 295.508 43.2086H302.15V38.7642C302.15 37.8097 302.924 37.0359 303.878 37.0359Z" fill="url(#paint6_linear)" />
		</g>
		<g opacity="0.4">
			<path opacity="0.3" fill-rule="evenodd" clip-rule="evenodd" d="M377.766 27.6699C378.721 27.6699 379.494 28.4437 379.494 29.3983V33.8426H387C388.104 33.8426 389 34.738 389 35.8426V128.136C389 129.241 388.104 130.136 387 130.136H379.494V165.032C379.494 165.987 378.721 166.76 377.766 166.76C376.812 166.76 376.038 165.987 376.038 165.032V130.136H369.396C368.291 130.136 367.396 129.241 367.396 128.136V35.8426C367.396 34.738 368.291 33.8426 369.396 33.8426H376.038V29.3983C376.038 28.4437 376.812 27.6699 377.766 27.6699Z" fill="url(#paint7_linear)" />
		</g>
	</g>
	<defs>
		<linearGradient id="paint0_linear" x1="151.511" y1="54.2099" x2="151.511" y2="184.08" gradientUnits="userSpaceOnUse">
			<stop stop-color="#F5FAFF" />
			<stop offset="1" stop-color="#272FEE" stop-opacity="0" />
		</linearGradient>
		<linearGradient id="paint1_linear" x1="188.548" y1="25.4302" x2="188.548" y2="155.301" gradientUnits="userSpaceOnUse">
			<stop stop-color="#F5FAFF" />
			<stop offset="1" stop-color="#272FEE" stop-opacity="0" />
		</linearGradient>
		<linearGradient id="paint2_linear" x1="47.4059" y1="105.108" x2="47.4059" y2="234.978" gradientUnits="userSpaceOnUse">
			<stop stop-color="#C6C8FF" />
			<stop offset="1" stop-color="#272FEE" stop-opacity="0" />
		</linearGradient>
		<linearGradient id="paint3_linear" x1="236.195" y1="62.4402" x2="236.195" y2="192.311" gradientUnits="userSpaceOnUse">
			<stop stop-color="#F5FAFF" />
			<stop offset="1" stop-color="#272FEE" stop-opacity="0" />
		</linearGradient>
		<linearGradient id="paint4_linear" x1="10.3698" y1="142.144" x2="10.3698" y2="272.014" gradientUnits="userSpaceOnUse">
			<stop stop-color="#C6C8FF" />
			<stop offset="1" stop-color="#272FEE" stop-opacity="0" />
		</linearGradient>
		<linearGradient id="paint5_linear" x1="341.394" y1="0" x2="341.394" y2="129.87" gradientUnits="userSpaceOnUse">
			<stop stop-color="#99F5BE" />
			<stop offset="1" stop-color="#272FEE" stop-opacity="0" />
		</linearGradient>
		<linearGradient id="paint6_linear" x1="304.359" y1="37.0359" x2="304.359" y2="166.906" gradientUnits="userSpaceOnUse">
			<stop stop-color="#99F5BE" />
			<stop offset="1" stop-color="#272FEE" stop-opacity="0" />
		</linearGradient>
		<linearGradient id="paint7_linear" x1="378.247" y1="27.6699" x2="378.247" y2="157.54" gradientUnits="userSpaceOnUse">
			<stop stop-color="#99F5BE" />
			<stop offset="1" stop-color="#272FEE" stop-opacity="0" />
		</linearGradient>
	</defs>
</svg>