<svg width="48" height="48" viewBox="0 0 48 48" fill="none" xmlns="http://www.w3.org/2000/svg">
<path d="M0 0H36C42.6274 0 48 5.37258 48 12V48H14C6.26801 48 0 41.732 0 34V0Z" fill="#101623"/>
<path d="M8 0H40C44.4183 0 48 3.58172 48 8V40H16C11.5817 40 8 36.4183 8 32V0Z" fill="#3459DF"/>
<path d="M28 11V29" stroke="white" stroke-width="2"/>
<path d="M34 16.7273V16.7273C34 15.221 32.779 14 31.2727 14H25.75C24.0931 14 22.75 15.3431 22.75 17V17C22.75 18.6569 24.0931 20 25.75 20H31C32.6569 20 34 21.3431 34 23V23C34 24.6569 32.6569 26 31 26H22" stroke="white" stroke-width="2"/>
</svg>
