<svg width="126" height="126" viewBox="0 0 126 126" fill="none" xmlns="http://www.w3.org/2000/svg">
<path fill-rule="evenodd" clip-rule="evenodd" d="M30.5793 30.9034C25.932 38.9142 23.9024 47.1478 24.6953 54.7735C25.0516 58.2013 25.6707 61.1258 26.7305 64.3881C27.3833 66.3976 30.498 72.7132 31.0718 73.1911C31.6777 73.6959 34.4214 68.7366 35.9616 64.3529C37.4981 59.9804 38.0508 56.6543 38.0576 51.737C38.0668 45.0542 36.7545 39.7832 33.5658 33.6946C31.2791 29.3281 31.4181 29.458 30.5793 30.9034ZM34.5356 40.3269C35.7321 43.9136 36.2949 46.8531 36.478 50.4697C36.6484 53.8428 36.3554 59.1592 36.0105 58.9452C35.8932 58.8724 35.7231 57.2525 35.6328 55.3455C35.4117 50.6832 34.4534 47.0284 32.077 41.7856C31.7426 41.0479 31.4138 40.4446 31.3463 40.4446C31.0974 40.4446 29.8463 43.1986 28.9978 45.6143C27.9239 48.6711 27.0874 52.7858 26.8925 55.9717C26.7122 58.917 26.6979 58.9599 26.4183 57.3832C26.0532 55.3235 26.1227 49.5274 26.544 46.9233C27.2019 42.8553 28.9654 37.5013 30.8595 33.8216L31.2895 32.986L32.4849 35.3743C33.1422 36.6879 34.065 38.9168 34.5356 40.3269ZM20.3855 50.8023C12.988 51.7644 7.42653 55.0172 3.67251 60.577C1.25561 64.1564 0.00989446 68.5915 5.02298e-05 73.6505C-0.0221696 85.0662 7.32922 93.7125 18.7128 95.6602C21.8857 96.203 25.7987 96.0876 28.5421 95.3705C31.0347 94.7187 34.6084 92.8201 36.7666 91.0009L38.6676 89.3985L38.7427 82.0015L38.8175 74.6041H31.6408H24.4638V78.0017C24.4638 81.3903 24.4655 81.3984 25.0606 81.0365C25.3889 80.8369 25.9267 80.5168 26.256 80.3251C27.1763 79.7887 29.6737 79.887 30.8738 80.5066C34.8084 82.5381 34.9814 87.3874 31.2397 90.7802C27.099 94.5352 19.8882 95.1385 15.2046 92.1217C13.6543 91.1234 11.4641 88.8353 10.7716 87.4915C9.13493 84.3144 8.72907 79.7486 9.82319 76.8214C10.6237 74.68 12.3242 72.0932 13.6641 70.9787C15.7218 69.267 19.3769 67.8394 21.7215 67.832L22.7762 67.8287V59.2182V50.6078L22.0027 50.6501C21.5775 50.6733 20.8496 50.7419 20.3855 50.8023ZM32.7541 60.0841C33.3706 62.4588 33.3036 66.071 32.5946 68.7083C32.2711 69.9121 31.8363 71.1277 31.6287 71.4098C31.283 71.8787 31.1995 71.8056 30.6409 70.545C28.9359 66.6966 28.973 61.4307 30.7334 57.3832L31.2861 56.1128L31.8056 57.2723C32.0914 57.91 32.5184 59.1753 32.7541 60.0841ZM44.4119 75.4293L43.5897 76.2545V85.2895V94.3248L44.3309 94.9098C45.3839 95.7415 48.8111 95.7542 49.8543 94.9304C50.2475 94.6199 50.6295 94.3658 50.7032 94.3658C50.7769 94.3658 50.9032 94.6199 50.9842 94.9304C51.1012 95.3795 51.3678 95.495 52.2887 95.495H53.4463L53.3698 90.2017L53.2933 84.9084H50.9026H48.5119L48.4252 86.4408C48.3594 87.5999 48.4449 88.0327 48.7768 88.219C49.3959 88.5668 49.4068 92.0511 48.7895 92.2888C48.5554 92.3792 48.1735 92.2942 47.9409 92.1002C47.5814 91.801 47.5288 90.7203 47.593 84.9403L47.6681 78.133H48.3712C49.0437 78.133 49.078 78.2165 49.1576 80.0386L49.2406 81.9441H51.3374H53.434V79.3892C53.434 75.1379 52.8495 74.6041 48.1957 74.6041C45.2973 74.6041 45.2166 74.6216 44.4119 75.4293ZM57.3728 74.957C57.3736 75.1512 57.1261 77.279 56.8229 79.6857C56.52 82.0924 56.0067 86.2211 55.6824 88.8607C55.3581 91.5003 55.022 94.0727 54.9354 94.5775L54.7776 95.495H56.7411H58.7043L58.8787 94.4363C58.9746 93.8542 59.0545 92.965 59.0562 92.4602C59.059 91.6068 59.1256 91.5427 60.0085 91.5427C60.8467 91.5427 60.9783 91.646 61.1336 92.4249C61.2303 92.9102 61.3094 93.7995 61.3094 94.4011V95.495H63.2782C64.3611 95.495 65.2465 95.3999 65.2462 95.2833C65.2456 95.1667 64.8133 91.578 64.2857 87.308C63.7583 83.0381 63.2473 78.7823 63.1502 77.8507C63.0535 76.919 62.9061 75.8073 62.8226 75.3804L62.671 74.6041H60.0214C58.0886 74.6041 57.3719 74.6995 57.3728 74.957ZM66.6534 76.298V77.9918H68.5004C70.1301 77.9918 70.3298 78.05 70.1959 78.4859C68.7131 83.3114 66.3721 92.81 66.3721 94.0007V95.495H70.3098H74.2475V93.9423V92.3896H72.2786C71.1958 92.3896 70.3098 92.3024 70.3098 92.1959C70.3098 91.969 72.3248 84.5637 73.3297 81.0972C73.7125 79.7774 74.0922 77.7767 74.1735 76.6508L74.3215 74.6041H70.4875H66.6534V76.298ZM75.9351 85.0496V95.495H78.0445H80.154V91.9661V88.4373H81.9963C83.9269 88.4373 85.3009 87.9486 85.6046 87.1542C85.7005 86.9029 85.7793 84.2303 85.7793 81.2152C85.7793 74.1191 86.1815 74.6041 80.2947 74.6041H75.9351V85.0496ZM87.7481 85.0496V95.495H89.717H91.6858V91.5729C91.6858 88.2111 91.7511 87.6256 92.1435 87.4746C93.1698 87.0791 93.3734 87.7817 93.3734 91.7183V95.495H95.5076H97.6419L97.5468 91.0071C97.4641 87.1101 97.3828 86.4428 96.9283 85.9394C96.417 85.3728 96.4186 85.342 96.9986 84.6018C97.5358 83.9164 97.5924 83.483 97.5924 80.0524C97.5924 76.4052 97.3958 75.3291 96.6361 74.8201C96.4659 74.706 94.3967 74.6109 92.0374 74.6083L87.7481 74.6041V85.0496ZM100.384 75.3322L99.7019 76.0602L99.6144 84.1544C99.566 88.6061 99.6062 92.6756 99.7033 93.1976C99.8003 93.7196 100.182 94.4499 100.552 94.8209C101.184 95.4561 101.417 95.495 104.573 95.495C107.536 95.495 108.009 95.4275 108.664 94.9098L109.405 94.3248V85.0496V75.7743L108.664 75.1893C108.007 74.6699 107.537 74.6041 104.494 74.6041C101.173 74.6041 101.044 74.627 100.384 75.3322ZM111.656 85.0496V95.495H113.765H115.875L115.909 89.9194L115.943 84.3438L116.332 86.4611C116.545 87.6256 116.941 90.1029 117.211 91.9661L117.703 95.3539L118.849 95.4383L119.996 95.5227L120.641 91.0625C121.605 84.4065 121.727 84.3119 121.756 90.2017L121.781 95.495H123.891H126V85.0496V74.6041H123.187C121.125 74.6041 120.374 74.6984 120.374 74.957C120.372 75.6975 119.013 84.5341 118.88 84.6676C118.705 84.844 118.588 84.219 117.812 78.9093L117.181 74.6041H114.418H111.656V85.0496ZM81.5353 78.1028C81.7508 78.363 81.8337 79.5801 81.7808 81.7022L81.701 84.9084L80.9275 84.9976L80.154 85.0871V81.3982C80.154 77.978 80.1926 77.7095 80.6822 77.7095C80.9725 77.7095 81.3564 77.8865 81.5353 78.1028ZM93.0331 77.9492C93.2972 78.1174 93.3737 78.902 93.3143 80.8386L93.2328 83.4968L92.4593 83.5861L91.6858 83.6755V80.8807C91.6858 79.3435 91.7702 78.0011 91.8734 77.8978C92.124 77.6463 92.5895 77.6669 93.0331 77.9492ZM105.157 78.0977C105.383 78.3701 105.456 80.4908 105.403 85.226L105.327 91.9661H104.624H103.921L103.845 85.0693C103.787 79.7402 103.851 78.1211 104.127 77.9455C104.624 77.6285 104.789 77.6528 105.157 78.0977ZM60.6082 84.798L60.809 88.155H60.0361H59.2632L59.4524 85.6847C59.5565 84.3263 59.7239 82.3888 59.8246 81.3795C59.988 79.7424 60.0293 79.6467 60.2074 80.4928C60.3173 81.0145 60.4976 82.952 60.6082 84.798Z" fill="#F2F5FF"/>
</svg>
