<svg width="126" height="126" viewBox="0 0 126 126" fill="none" xmlns="http://www.w3.org/2000/svg">
<path fill-rule="evenodd" clip-rule="evenodd" d="M51.3692 32.6378L40.2231 39.2342L39.9449 47.554L39.6667 55.8728L47.9556 60.8511C55.1366 65.1659 59.188 66.3447 59.0979 64.0932C59.0843 63.7484 55.5951 61.3508 51.344 58.7653L43.6154 54.0637L43.6348 47.5618L43.6551 41.0599L53.3872 35.4114C59.0397 32.1312 63.8054 29.9773 64.7553 30.2744C65.6557 30.5559 66.9632 30.4254 67.662 29.9841C68.6177 29.3801 68.3279 28.7848 66.4844 27.571C65.1381 26.6844 63.6949 25.9781 63.2762 26.0005C62.8575 26.0229 57.4996 29.0099 51.3692 32.6378ZM59.85 37.3033L48.4615 43.7273V48.8653C48.4615 52.5342 48.8773 54.1641 49.9154 54.5645C51.0804 55.0136 51.3712 54.2118 51.3789 50.5283L51.3896 45.931L61.3135 40.2523L71.2385 34.5726L76.4471 37.3296C79.3121 38.8455 81.8632 40.8222 82.1161 41.7233C82.3691 42.6235 83.1871 43.5968 83.9344 43.8842C84.9085 44.2602 85.2923 43.6026 85.2923 41.5597C85.2923 39.0637 84.4597 38.222 78.5814 34.7704C74.8896 32.6037 71.7279 30.8414 71.5544 30.855C71.38 30.8677 66.1141 33.7699 59.85 37.3033ZM67.4827 40.376C67.22 40.8037 70.465 43.3211 74.6947 45.9709L82.3846 50.7884L82.3672 57.1276L82.3497 63.4668L72.7446 69.127C67.4614 72.2406 62.5629 74.7092 61.8583 74.6138C57.6489 74.0409 56.9268 75.6289 60.5168 77.5608C62.6947 78.7327 63.7541 78.3207 74.0861 72.2903L85.2923 65.7494V57.1276V48.5048L78.184 44.0517C71.2898 39.733 68.4732 38.7656 67.4827 40.376ZM74.6308 54.394V58.6347L64.4975 64.3017L54.3642 69.9687L49.4909 67.3023C46.81 65.8361 43.9459 63.6061 43.125 62.3465C41.0401 59.1491 39.5592 59.493 39.9197 63.0918C40.1853 65.7475 41.0993 66.6087 47.2616 70.0077L54.3002 73.889L65.9629 67.2516L77.6257 60.6143L77.3398 55.7851C76.9695 49.5356 74.6308 48.3344 74.6308 54.394ZM0 93.6674V99.9998H3.843C8.15704 99.9998 10.8011 97.159 8.77348 94.703C8.19388 94.0016 8.0165 92.6504 8.379 91.7015C9.21932 89.5007 6.41437 87.335 2.72257 87.335C0.0174444 87.335 0 87.3769 0 93.6674ZM13.2465 87.9849C12.8908 88.3414 12.6 91.191 12.6 94.3172V99.9998H16.9615C20.192 99.9998 21.3231 99.6209 21.3231 98.5385C21.3231 97.5643 20.3538 97.0772 18.4154 97.0772C15.5726 97.0772 15.5077 96.969 15.5077 92.2061C15.5077 87.6789 14.8224 86.3998 13.2465 87.9849ZM26.8428 88.4174C22.5055 90.9533 23.1394 98.4684 27.7888 99.6413C35.5834 101.608 39.9682 92.0824 32.9955 88.3317C30.681 87.0866 29.0798 87.109 26.8428 88.4174ZM41.8931 88.8519C37.5674 91.8963 40.0506 99.9998 45.3086 99.9998C48.2677 99.9998 50.4 98.9915 50.4 97.5926C50.4 96.8073 49.0964 96.4079 46.7654 96.479C43.3488 96.5833 43.1308 96.4147 43.1308 93.6674C43.1308 90.9016 43.3256 90.7565 46.7654 90.9591C50.6985 91.191 51.5272 89.9586 48.5255 88.3434C45.9503 86.958 44.414 87.0759 41.8931 88.8519ZM54.2769 93.5866C54.2769 98.6379 54.5861 99.9998 55.7308 99.9998C56.5381 99.9998 57.1846 99.1338 57.1846 98.0514C57.1846 96.9798 57.6053 96.103 58.1199 96.103C58.6336 96.103 59.5214 96.9798 60.0923 98.0514C60.6632 99.123 62.0085 99.9998 63.0834 99.9998C64.9375 99.9998 64.9104 99.8332 62.5571 96.7313L60.0768 93.4628L62.023 90.9757C64.3201 88.0404 64.4374 87.335 62.6269 87.335C61.8883 87.335 60.4945 88.5411 59.5282 90.0141L57.772 92.6932L57.2089 90.3298C56.8997 89.0302 56.1136 87.7881 55.4613 87.5698C54.6084 87.2834 54.2769 88.9659 54.2769 93.5866ZM68.2872 89.7267C66.9787 91.0419 65.9077 93.0147 65.9077 94.1107C65.9077 98.7821 73.6974 102.017 76.5692 98.5385C77.8903 96.9388 77.5608 96.7995 73.0209 97.046C70.6705 97.1727 69.8059 96.7313 69.3068 95.1492C68.3608 92.1545 70.5377 89.9703 73.8118 90.6289C77.0713 91.2845 78.3216 89.7735 75.6911 88.358C72.7524 86.7768 70.876 87.1236 68.2872 89.7267ZM81.4154 93.6674C81.4154 97.2399 81.838 99.9998 82.3846 99.9998C82.9177 99.9998 83.3538 98.9038 83.3538 97.5643C83.3538 95.6159 83.8385 95.1288 85.7769 95.1288C87.7154 95.1288 88.2 95.6159 88.2 97.5643C88.2 99.0802 88.7496 99.9998 89.6538 99.9998C90.7985 99.9998 91.1077 98.6379 91.1077 93.5866C91.1077 88.8909 90.783 87.2805 89.8962 87.5737C89.2303 87.7939 88.545 88.9269 88.3745 90.0901C88.1544 91.5963 87.3858 92.2061 85.7091 92.2061C83.8433 92.2061 83.3538 91.7005 83.3538 89.7706C83.3538 88.431 82.9177 87.335 82.3846 87.335C81.838 87.335 81.4154 90.095 81.4154 93.6674ZM96.7157 93.3771C94.375 99.4874 94.6483 101.328 97.5385 98.9165C99.6863 97.1249 101.798 96.9944 102.418 98.6155C102.708 99.3773 103.54 99.9998 104.267 99.9998C105.292 99.9998 105.106 98.6544 103.436 93.985C102.253 90.6776 100.785 87.8066 100.176 87.6059C99.5623 87.4042 98.0164 89.982 96.7157 93.3771ZM109.2 87.9849C108.845 88.3414 108.554 91.191 108.554 94.3172C108.554 98.7187 108.881 99.9998 110.008 99.9998C111.15 99.9998 111.462 98.6466 111.462 93.6674C111.462 87.827 110.86 86.316 109.2 87.9849ZM116.055 87.9137C115.661 88.3102 115.338 91.191 115.338 94.3172C115.338 98.7187 115.666 99.9998 116.792 99.9998C117.762 99.9998 118.246 99.0256 118.246 97.0772C118.246 95.4697 118.492 94.1545 118.794 94.1545C119.094 94.1545 120.441 95.4697 121.787 97.0772C123.133 98.6846 124.631 99.9998 125.117 99.9998C125.603 99.9998 126 97.1502 126 93.6674C126 90.095 125.577 87.335 125.031 87.335C124.498 87.335 124.062 88.8694 124.062 90.7448C124.062 92.6202 123.849 94.1545 123.59 94.1545C123.331 94.1545 121.691 92.588 119.945 90.6737C118.2 88.7593 116.449 87.5172 116.055 87.9137ZM5.81538 91.2319C5.81538 91.7677 4.94308 92.2061 3.87692 92.2061C2.81077 92.2061 1.93846 91.7677 1.93846 91.2319C1.93846 90.6961 2.81077 90.2577 3.87692 90.2577C4.94308 90.2577 5.81538 90.6961 5.81538 91.2319ZM32.9868 92.2685C33.7816 93.761 33.7602 94.6397 32.9025 95.6782C30.2032 98.9477 25.2659 95.7221 27.2548 91.9879C28.5012 89.6459 31.6735 89.8008 32.9868 92.2685ZM100.416 94.8647C99.4314 95.8555 98.6183 94.364 99.4266 93.0498C100.037 92.0561 100.266 92.0561 100.594 93.0459C100.818 93.723 100.738 94.5413 100.416 94.8647ZM6.78462 95.9987C6.78462 97.1347 3.9535 98.2141 2.82047 97.5097C1.11171 96.4488 1.96657 95.1288 4.36154 95.1288C5.69423 95.1288 6.78462 95.5204 6.78462 95.9987Z" fill="#F2F5FF"/>
</svg>
