<svg width="126" height="126" viewBox="0 0 126 126" fill="none" xmlns="http://www.w3.org/2000/svg">
<g clip-path="url(#clip0)">
<path fill-rule="evenodd" clip-rule="evenodd" d="M57.5998 69.7691C54.9744 70.4453 53.5199 73.664 54.7967 75.9724C55.361 76.9927 56.2483 77.5561 58.2778 78.1833C59.2673 78.489 60.3695 78.9074 60.7267 79.113C62.624 80.2045 62.6603 83.1562 60.7929 84.4716C60.2783 84.8341 59.9444 84.939 59.1441 84.9899C57.0643 85.1224 55.9553 84.2361 55.4726 82.0556C55.3856 81.6633 55.3232 81.6325 54.6126 81.6325C53.8658 81.6325 53.8463 81.6442 53.8463 82.0882C53.8463 82.7611 54.3881 84.0894 54.9313 84.7481C56.6513 86.8333 60.345 87.069 62.322 85.2198C63.3278 84.2788 63.7594 83.2495 63.7612 81.7864C63.7629 80.3804 63.5183 79.6273 62.8021 78.8347C62.0433 77.9948 61.288 77.6002 59.154 76.9288C57.5618 76.4281 57.2178 76.2594 56.654 75.7028C55.9884 75.046 55.9135 74.8005 55.9992 73.5577C56.1049 72.0257 57.5604 70.8783 59.1333 71.087C60.548 71.2747 61.3538 71.9896 61.6992 73.3633L61.8827 74.094H62.6547H63.4266L63.3272 73.369C63.1415 72.0143 62.2053 70.6813 61.0001 70.0551C60.3278 69.7057 58.4566 69.5483 57.5998 69.7691ZM1.07693 78.1021V86.2641L1.84139 86.2175L2.6057 86.171L2.63662 79.1284C2.65354 75.255 2.72416 72.105 2.79339 72.1284C2.89816 72.1637 7.34032 78.6054 11.496 84.7479L12.5108 86.2479H13.3323H14.1539V78.0941V69.9402H13.3462L12.5385 69.9403L12.568 76.5521C12.5842 80.1887 12.5496 83.1933 12.4911 83.2291C12.4325 83.265 11.9566 82.6607 11.4336 81.8865C10.9105 81.1122 9.39879 78.8864 8.07417 76.9402C6.7497 74.994 5.13663 72.623 4.4897 71.671L3.31339 69.9402H2.19524H1.07693V78.1021ZM46.0001 73.0367V76.1333L45.3216 75.5079C43.4044 73.7407 40.6976 73.3984 38.241 74.6125C36.3622 75.541 35.2485 77.1033 34.9175 79.2745C34.3915 82.7256 36.5682 85.7085 40.1232 86.4079C41.9833 86.7739 43.9876 86.1393 45.301 84.7685L46.0001 84.039V85.1435V86.2479H46.7693H47.5386V78.0941V69.9402H46.7693H46.0001V73.0367ZM65.6537 76.4996C65.6769 80.4931 65.7554 83.2948 65.8543 83.6622C65.9437 83.9939 66.2574 84.5316 66.5514 84.8571C67.3392 85.7293 68.2555 86.1007 69.8784 86.2058L71.2497 86.2947L71.2018 85.5405L71.154 84.7864L70.0957 84.7527C68.7107 84.7087 68.0309 84.3639 67.577 83.4756C67.2474 82.8304 67.2309 82.6275 67.2309 79.2153V75.6325H69.2309H71.2309V74.9402C71.2309 74.386 71.1772 74.2465 70.9617 74.2408C70.8137 74.237 70.0569 74.2319 69.2803 74.2293C67.0634 74.2222 67.2309 74.4045 67.2309 71.9991V69.9402H66.4232L65.6155 69.94L65.6537 76.4996ZM21.1662 73.9628C20.1234 74.1079 18.6263 74.7636 17.8616 75.4104C17.1851 75.9822 16.4248 77.1848 16.0825 78.2244C15.8751 78.8541 15.8265 79.3948 15.875 80.5321C15.9296 81.8093 16.0068 82.159 16.4268 83.0308C18.6074 87.557 25.4119 87.641 27.6928 83.1699C28.5885 81.4142 28.5813 78.9134 27.6754 77.1376C26.9677 75.7507 25.2119 74.3819 23.7974 74.1148C22.3996 73.8508 22.0963 73.8333 21.1662 73.9628ZM84.6774 73.9479C81.0472 74.4424 78.7537 77.5113 79.2581 81.1994C79.7251 84.6135 82.9388 86.9522 86.4029 86.3988C87.6623 86.1976 88.2812 85.9451 89.2408 85.2407C89.9459 84.7231 91.2309 83.015 91.2309 82.5953C91.2309 82.4636 90.9726 82.4036 90.4232 82.4074C89.6386 82.4128 89.6032 82.4324 89.1879 83.0882C88.7025 83.8547 87.6242 84.6327 86.7016 84.8824C85.8763 85.1058 84.2094 84.9776 83.5374 84.6391C82.6263 84.1804 81.5641 83.0261 81.2291 82.1307C80.6466 80.5742 80.1625 80.7094 86.3154 80.7094H91.7074L91.6077 79.8248C91.2725 76.8504 89.5749 74.6431 87.2131 74.1107C86.1591 73.873 85.5255 73.8324 84.6774 73.9479ZM98.6774 73.9479C97.1842 74.1513 95.6337 74.8987 94.827 75.8039C92.9059 77.9593 92.6716 81.485 94.2928 83.8413C95.932 86.2239 99.5233 87.1765 102.123 85.9182C102.492 85.7395 103.135 85.2525 103.551 84.8362C103.967 84.4199 104.314 84.1001 104.321 84.1251C104.328 84.1504 104.356 84.5864 104.383 85.0941C104.41 85.6018 104.439 86.069 104.447 86.1325C104.455 86.1961 104.773 86.2479 105.154 86.2479H105.846V80.2479C105.846 75.561 105.804 74.2436 105.654 74.228C104.415 74.1002 104.256 74.2319 104.331 75.3205C104.361 75.746 104.347 76.0942 104.301 76.0942C104.254 76.094 103.943 75.8113 103.608 75.4656C102.437 74.2548 100.592 73.6871 98.6774 73.9479ZM111.897 73.9588C111.076 74.106 110.461 74.4267 109.875 75.0127C109.618 75.269 109.369 75.4787 109.32 75.4787C109.271 75.4787 109.231 75.2017 109.231 74.8633C109.231 74.5248 109.179 74.2414 109.116 74.2334C109.052 74.2254 108.706 74.2082 108.346 74.195L107.693 74.171V80.2094V86.2479H108.539H109.385V82.1984C109.385 77.459 109.459 77.0767 110.566 76.1021C112.019 74.8234 114.363 75.15 115.297 76.7613C115.863 77.7361 116 78.9058 116 82.7378V86.2479H116.769H117.539V82.117C117.539 79.3582 117.599 77.8124 117.719 77.4631C118.006 76.6317 118.463 76.1207 119.291 75.7084C121.042 74.8357 122.985 75.5664 123.793 77.4017C124.024 77.9262 124.073 78.6254 124.124 82.1325L124.184 86.2479H124.938H125.693V82.3324C125.693 80.1542 125.62 78.0794 125.529 77.6562C124.743 73.989 120.277 72.637 117.58 75.2496L116.747 76.0565L116.06 75.3227C114.999 74.1881 113.449 73.6803 111.897 73.9588ZM33.8293 74.1664C33.0771 74.4431 32.0048 75.1331 31.8993 75.4084C31.7304 75.8485 31.5547 75.6207 31.5085 74.9017L31.4616 74.171L30.8707 74.1688C30.4925 74.1674 30.2399 74.2505 30.169 74.3996C30.0754 74.5965 30.0596 79.3598 30.1344 84.8248L30.1539 86.2479H30.9138H31.6734L31.7214 82.2864L31.7693 78.3248L32.1913 77.607C32.7247 76.6997 33.6645 75.8894 34.4604 75.651C35.0722 75.4677 35.077 75.4605 35.077 74.7033C35.077 74.0113 35.0447 73.9413 34.7308 73.951C34.5405 73.957 34.1347 74.0539 33.8293 74.1664ZM76.9232 74.332C76.4578 74.5499 75.8521 74.9451 75.5771 75.2105L75.0771 75.6928V74.9808C75.0771 74.2047 74.9472 74.0985 74.0771 74.1634L73.6155 74.1977L73.5752 80.2228L73.5351 86.2479H74.2963H75.0575L75.1058 82.4402L75.154 78.6325L75.5897 77.7453C76.0621 76.7831 77.1232 75.831 77.8951 75.6767C78.3714 75.5813 78.5734 75.213 78.552 74.4787C78.534 73.856 78.0361 73.8113 76.9232 74.332ZM23.759 75.6419C24.79 76.0276 25.8925 77.0542 26.3562 78.0602C26.8468 79.125 26.8305 81.2371 26.323 82.3678C25.8745 83.3667 24.7253 84.4368 23.741 84.7722C22.822 85.0853 21.333 85.0858 20.4153 84.773C19.4877 84.457 18.269 83.3084 17.8176 82.3248C17.2845 81.1631 17.3106 79.249 17.8753 78.0941C19.026 75.7404 21.3896 74.7554 23.759 75.6419ZM43.2559 75.7744C44.9205 76.5654 45.8725 78.0642 45.9693 80.0465C46.0227 81.1371 45.9801 81.4176 45.6538 82.1305C44.8296 83.9308 43.4687 84.8753 41.5444 84.9825C40.6155 85.0344 40.2075 84.9804 39.4941 84.7113C38.3022 84.2615 37.2173 83.1765 36.7674 81.9847C36.3088 80.7688 36.3907 79.1278 36.9664 78.0005C37.4753 77.0041 38.6805 75.9144 39.641 75.5824C40.6527 75.2327 42.2999 75.3202 43.2559 75.7744ZM86.7189 75.5548C87.7883 75.8724 88.8566 76.8488 89.4065 78.011C89.6482 78.5221 89.8462 79.0268 89.8462 79.1325C89.8463 79.2819 88.8482 79.3248 85.3682 79.3248H80.8898L80.9925 78.9017C81.4702 76.933 83.3728 75.3637 85.3183 75.3344C85.6626 75.3291 86.2929 75.4284 86.7189 75.5548ZM101.554 75.7745C103.326 76.6651 104.297 78.2093 104.327 80.1838C104.355 82.0633 103.48 83.5667 101.824 84.4839C101.081 84.8953 100.864 84.9401 99.6156 84.9391C98.0576 84.9379 97.4191 84.6951 96.289 83.6741C94.1399 81.7325 94.3396 78.109 96.6946 76.3127C98.0343 75.2908 100.13 75.0587 101.554 75.7745ZM91.5137 92.5604C91.3731 92.6425 91.2112 92.9865 91.154 93.325C91.0751 93.7919 90.9792 93.9402 90.7559 93.9402C90.364 93.9402 90.3751 94.4079 90.7694 94.511C91.0522 94.585 91.0771 94.7209 91.0771 96.189V97.7864H91.4617H91.8463V96.171C91.8463 94.6582 91.8659 94.5556 92.154 94.5556C92.3591 94.5556 92.4617 94.453 92.4617 94.2479C92.4617 94.0429 92.3591 93.9402 92.154 93.9402C91.9146 93.9402 91.8463 93.8376 91.8463 93.4787C91.8463 93.089 91.9062 93.0172 92.2309 93.0172C92.5129 93.0172 92.6156 92.9352 92.6156 92.7095C92.6156 92.4752 92.5145 92.4029 92.1925 92.4064C91.9597 92.409 91.6543 92.4782 91.5137 92.5604ZM0 92.7787C0 92.9424 0.235539 93.0141 0.884617 93.0479L1.76923 93.0941L1.8117 95.4402C1.8517 97.6484 1.87185 97.7864 2.15385 97.7864C2.43585 97.7864 2.456 97.6484 2.496 95.4402L2.53847 93.0941L3.34616 93.0476C3.92724 93.0141 4.15385 92.9385 4.15385 92.7784C4.15385 92.595 3.78724 92.5556 2.07693 92.5556C0.365078 92.5556 0 92.5949 0 92.7787ZM4.92309 95.171C4.92309 97.6838 4.93509 97.7864 5.23078 97.7864C5.51447 97.7864 5.53847 97.6838 5.53847 96.4718C5.53847 95.281 5.57401 95.1215 5.91616 94.7795C6.32601 94.3695 6.62494 94.3138 7.08709 94.561C7.35063 94.7021 7.38463 94.8952 7.38463 96.2533C7.38463 97.6838 7.40524 97.7864 7.69232 97.7864C7.98109 97.7864 8.00002 97.6838 8.00002 96.1179C8.00002 94.3095 7.90294 94.0744 7.07094 93.8667C6.6457 93.7607 5.84494 94.0042 5.6594 94.2961C5.5954 94.3965 5.54217 94.0461 5.54078 93.5172C5.53878 92.659 5.50539 92.5556 5.23078 92.5556C4.93509 92.5556 4.92309 92.6582 4.92309 95.171ZM63.2309 95.171C63.2309 97.6838 63.2429 97.7864 63.5386 97.7864C63.8343 97.7864 63.8463 97.6838 63.8463 95.171C63.8463 92.6582 63.8343 92.5556 63.5386 92.5556C63.2429 92.5556 63.2309 92.6582 63.2309 95.171ZM102.462 95.171V97.7864H104.308C106.051 97.7864 106.154 97.7693 106.154 97.4787C106.154 97.1926 106.051 97.171 104.693 97.171H103.231V96.2479V95.3249H104.539C105.744 95.3249 105.846 95.3007 105.846 95.0172C105.846 94.7336 105.744 94.7095 104.539 94.7095H103.231V93.8633V93.0172H104.693C105.889 93.0172 106.154 92.9753 106.154 92.7864C106.154 92.5941 105.846 92.5556 104.308 92.5556H102.462V95.171ZM82.4617 93.4018C82.4617 93.8376 82.4031 93.9402 82.154 93.9402C81.9489 93.9402 81.8463 94.0429 81.8463 94.2479C81.8463 94.453 81.9489 94.5556 82.154 94.5556C82.44 94.5556 82.4617 94.6582 82.4617 96.0118C82.4617 97.5989 82.5663 97.7864 83.4515 97.7864C83.9714 97.7864 84.0145 97.2162 83.5002 97.1433C83.1774 97.0975 83.1509 97.0082 83.1094 95.8249C83.0646 94.5564 83.0649 94.5556 83.4555 94.5556C83.7437 94.5556 83.8463 94.4749 83.8463 94.2479C83.8463 94.0222 83.7437 93.9402 83.4617 93.9402C83.1248 93.9402 83.0771 93.8736 83.0771 93.4018C83.0771 92.9659 83.0185 92.8633 82.7694 92.8633C82.5203 92.8633 82.4617 92.9659 82.4617 93.4018ZM10.05 94.0109C8.79663 94.5561 8.55694 96.6186 9.64725 97.4762C10.464 98.1187 12.1217 97.7453 12.3513 96.867C12.4691 96.4169 11.9562 96.4596 11.4756 96.9402C11.264 97.1518 10.9586 97.3249 10.7969 97.3249C10.4097 97.3249 9.75125 96.7978 9.64879 96.4055C9.57125 96.1092 9.63725 96.0941 11.0145 96.0941H12.4616V95.6942C12.4616 95.0366 12.0146 94.2899 11.4649 94.029C10.8502 93.7373 10.6839 93.7352 10.05 94.0109ZM16.577 94.0741C16.1225 94.3061 16 94.3232 16 94.1544C16 94.0366 15.8962 93.9402 15.7693 93.9402C15.5765 93.9402 15.5385 94.2565 15.5385 95.8633C15.5385 97.6838 15.555 97.7864 15.8462 97.7864C16.1311 97.7864 16.1539 97.6838 16.1539 96.4018C16.1539 94.8745 16.3877 94.4018 17.143 94.4018C17.8448 94.4018 18 94.7522 18 96.3358C18 97.6838 18.0217 97.7864 18.3077 97.7864C18.5957 97.7864 18.6154 97.6838 18.6154 96.1881C18.6154 94.8875 18.5653 94.5315 18.3462 94.2773C17.9411 93.8073 17.254 93.7284 16.577 94.0741ZM20.8462 93.9156C19.9947 94.1967 19.5385 94.8398 19.5385 95.7589C19.5385 96.6056 19.9002 97.3838 20.3993 97.6112C21.095 97.9283 22.1231 97.8312 22.5454 97.4087C22.9653 96.989 23.0434 96.5556 22.6993 96.5556C22.5762 96.5556 22.2948 96.7364 22.0737 96.9575C21.7473 97.2839 21.5807 97.341 21.1842 97.2616C20.6307 97.151 20.3867 96.9393 20.237 96.4402C20.1343 96.0981 20.1505 96.0941 21.6051 96.0941C23.2077 96.0941 23.1864 96.1093 22.9225 95.1596C22.6611 94.2186 21.6903 93.6369 20.8462 93.9156ZM32.4942 93.9601C31.7908 94.1629 31.3859 94.8775 31.3853 95.9172C31.3847 96.6484 31.443 96.7985 31.9078 97.2633C32.5021 97.8576 33.099 97.9421 33.8742 97.5412L34.3484 97.2959L34.2414 97.7335C34.0128 98.669 32.9799 99.087 32.3361 98.5044C31.9825 98.1844 31.5385 98.1713 31.5385 98.481C31.5385 98.9198 32.4684 99.3481 33.2708 99.2789C34.6328 99.1616 34.921 98.5455 34.9222 95.7479C34.9231 94.0687 34.9022 93.9402 34.6282 93.9402C34.4661 93.9402 34.309 94.0136 34.279 94.1033C34.2439 94.2085 34.0621 94.1816 33.7662 94.0273C33.2514 93.7589 33.2008 93.7562 32.4942 93.9601ZM36.8748 93.9429C36.3188 94.1096 36.0536 94.3341 35.9518 94.7239C35.8239 95.2124 36.2664 95.2607 36.6891 94.8044C37.2825 94.1641 38.3078 94.3166 38.3078 95.045C38.3078 95.2186 38.1527 95.3535 37.8847 95.413C36.3911 95.7452 36.0711 95.8855 35.8751 96.2939C35.6559 96.7504 35.7338 97.1904 36.0981 97.5547C36.3818 97.8386 37.5673 97.8627 38.0222 97.5941C38.2828 97.4402 38.3619 97.4402 38.4176 97.5941C38.5153 97.8636 39.3847 97.8439 39.3847 97.5721C39.3847 97.4542 39.2808 97.3179 39.1539 97.2692C38.9733 97.1999 38.9227 96.8872 38.9208 95.8296C38.9195 95.0867 38.8627 94.3909 38.7945 94.2836C38.6756 94.0962 37.7839 93.7722 37.4627 93.7996C37.3775 93.8069 37.113 93.8713 36.8748 93.9429ZM40.8462 93.897C40.3167 94.0261 40.0001 94.4239 40.0001 94.9606C40.0001 95.5524 40.3662 95.8579 41.2747 96.0239C42.4455 96.2379 42.8113 97.0359 41.8369 97.2499C41.2652 97.3756 40.8108 97.2286 40.6099 96.8529C40.4199 96.4978 39.8462 96.4532 39.8462 96.7933C39.8462 96.9241 40.0162 97.201 40.2239 97.4087C40.5262 97.7112 40.7581 97.7864 41.3878 97.7864C42.6102 97.7864 43.0705 97.4619 43.0747 96.5976C43.0773 96.0215 42.7041 95.7136 41.8024 95.5489C41.4822 95.4904 41.069 95.3201 40.8844 95.1706C40.5972 94.9379 40.5784 94.8627 40.7547 94.6502C41.0418 94.3042 41.7938 94.337 42.1127 94.7095C42.3916 95.0353 42.9232 95.1295 42.9232 94.8532C42.9232 94.4575 42.569 94.0956 42.0367 93.9478C41.4324 93.7799 41.3425 93.7761 40.8462 93.897ZM46.6925 93.9507C46.1481 94.1127 45.8462 94.4765 45.8462 94.9712C45.8462 95.4682 46.317 95.8195 47.3487 96.0922C48.0489 96.2773 48.2407 96.3947 48.2787 96.6609C48.3432 97.1135 47.8164 97.3824 47.1207 97.2518C46.7698 97.1861 46.5541 97.0467 46.5035 96.8532C46.4544 96.6652 46.2922 96.5556 46.0629 96.5556C45.7333 96.5556 45.7144 96.5933 45.8561 96.9662C46.0921 97.5867 46.4521 97.7761 47.4061 97.7815C48.3847 97.787 48.8473 97.513 49.0082 96.8326C49.1426 96.2649 48.5424 95.6736 47.6939 95.5381C47.3447 95.4822 46.9073 95.3076 46.7218 95.1499C46.3899 94.8679 46.3893 94.8599 46.6833 94.6327C47.097 94.3129 47.6349 94.3442 48.0001 94.7095C48.3855 95.0949 48.7693 95.1069 48.7693 94.7333C48.7693 94.1022 47.6287 93.6724 46.6925 93.9507ZM55.2693 94.0158C54.9943 94.1353 54.7693 94.1672 54.7693 94.0867C54.7693 94.0061 54.6309 93.9402 54.4616 93.9402C54.1659 93.9402 54.1539 94.0429 54.1539 96.5556C54.1539 99.0684 54.1659 99.171 54.4616 99.171C54.7321 99.171 54.7693 99.0684 54.7693 98.3249C54.7693 97.5416 54.9249 97.2618 55.1539 97.6326C55.2063 97.7172 55.5738 97.7849 55.9707 97.783C57.1213 97.7775 57.6924 97.1416 57.6924 95.8658C57.6924 94.9355 57.3363 94.2762 56.6872 94.005C56.0487 93.7382 55.9052 93.7393 55.2693 94.0158ZM59.9363 93.9453C59.6897 94.0199 59.4312 94.1705 59.3618 94.2799C59.2683 94.4272 59.235 94.4089 59.2332 94.2095C59.2318 94.0436 59.1127 93.9402 58.9232 93.9402C58.6275 93.9402 58.6155 94.0429 58.6155 96.5556C58.6155 99.0684 58.6275 99.171 58.9232 99.171C59.197 99.171 59.2309 99.0684 59.2309 98.2392V97.3075L59.5729 97.5469C59.7609 97.6786 60.2163 97.7864 60.5846 97.7864C61.7918 97.7864 62.5318 96.5741 62.1623 95.2018C61.883 94.165 60.9504 93.6386 59.9363 93.9453ZM72.4617 93.895C72.3348 93.9415 72.0751 94.1212 71.8848 94.2944L71.5386 94.6093V94.2747C71.5386 94.0429 71.4443 93.9402 71.2309 93.9402C70.9397 93.9402 70.9232 94.0429 70.9232 95.8633C70.9232 97.6838 70.9397 97.7864 71.2309 97.7864C71.5072 97.7864 71.5386 97.6838 71.5386 96.7815C71.5386 95.4469 71.8395 94.7339 72.4549 94.6109C72.8191 94.5379 72.9232 94.4359 72.9232 94.1518C72.9232 93.7785 72.8664 93.747 72.4617 93.895ZM74.6658 93.8889C74.1609 93.9941 73.5583 94.6786 73.4468 95.2738C73.1681 96.7584 73.8981 97.7864 75.2309 97.7864C76.3189 97.7864 76.9334 97.2282 77.0374 96.145C77.1198 95.2876 76.8234 94.4518 76.3268 94.1416C75.9772 93.9233 75.1237 93.7935 74.6658 93.8889ZM85.5419 93.9581C84.6051 94.3318 84.1906 95.2702 84.4505 96.4298C84.6603 97.3667 85.1935 97.7864 86.1745 97.7864C86.8231 97.7864 87.0189 97.7143 87.3966 97.3367C87.644 97.0893 87.8463 96.8124 87.8463 96.7213C87.8463 96.4218 87.35 96.5482 86.9866 96.9402C86.7906 97.1518 86.4632 97.3249 86.2591 97.3249C85.778 97.3249 85.0771 96.7709 85.0771 96.3906C85.0771 96.1198 85.1971 96.0941 86.4617 96.0941H87.8463V95.6249C87.8463 94.9218 87.4302 94.2512 86.8411 94.005C86.24 93.7539 86.0689 93.7478 85.5419 93.9581ZM94.0502 94.0058C92.7957 94.5647 92.5572 96.6187 93.6474 97.4762C94.0882 97.823 95.1328 97.8946 95.7368 97.6195C96.5123 97.2661 96.8833 95.7729 96.438 94.7958C96.079 94.0078 94.9122 93.6218 94.0502 94.0058ZM98.9373 93.9541C98.7334 94.0356 98.4759 94.2216 98.3653 94.3675C98.1803 94.6109 98.1634 94.6042 98.159 94.2864C98.1556 94.0444 98.0614 93.9402 97.8463 93.9402C97.5551 93.9402 97.5386 94.0429 97.5386 95.8633C97.5386 97.6838 97.5551 97.7864 97.8463 97.7864C98.1256 97.7864 98.1542 97.683 98.1563 96.671C98.159 95.3307 98.3742 94.8364 99.0408 94.6392C99.4145 94.5287 99.5386 94.4041 99.5386 94.1392C99.5386 93.7522 99.4842 93.7355 98.9373 93.9541ZM112.693 93.9058C112.523 93.9416 112.229 94.1145 112.039 94.2901L111.693 94.6093V94.2747C111.693 94.0799 111.596 93.9402 111.462 93.9402C111.269 93.9402 111.231 94.2565 111.231 95.8633C111.231 97.6838 111.247 97.7864 111.539 97.7864C111.82 97.7864 111.846 97.6838 111.846 96.5764C111.846 95.2046 112.171 94.5556 112.858 94.5556C113.125 94.5556 113.231 94.4706 113.231 94.257C113.231 93.9006 113.105 93.8184 112.693 93.9058ZM114.666 94.0109C113.772 94.3998 113.337 95.555 113.686 96.6135C113.941 97.3864 114.504 97.7864 115.336 97.7864C116.648 97.7864 117.231 97.1796 117.23 95.8176C117.23 94.8339 116.803 94.1604 116.047 93.9506C115.318 93.7482 115.264 93.7505 114.666 94.0109ZM119.616 93.8962C119.446 93.9387 119.21 94.0524 119.091 94.1492C118.926 94.2822 118.858 94.2782 118.809 94.1325C118.773 94.0269 118.611 93.9402 118.449 93.9402C118.17 93.9402 118.154 94.0807 118.154 96.5556C118.154 99.0684 118.166 99.171 118.462 99.171C118.733 99.171 118.769 99.0684 118.769 98.3084C118.769 97.5435 118.8 97.4595 119.039 97.5664C119.187 97.6329 119.635 97.7161 120.036 97.7515C120.68 97.8082 120.816 97.7635 121.217 97.3627C122.318 96.2618 121.807 94.1341 120.385 93.8964C120.131 93.8539 119.785 93.8539 119.616 93.8962ZM123.539 94.0559C122.386 94.6318 122.138 96.409 123.079 97.3499C123.44 97.7116 123.645 97.7864 124.275 97.7864C125.104 97.7864 125.745 97.4212 125.89 96.867C126 96.4478 125.499 96.4447 125.211 96.8629C124.884 97.3398 124.153 97.4124 123.652 97.0181C123.42 96.8361 123.231 96.5538 123.231 96.3906C123.231 96.1198 123.351 96.0941 124.616 96.0941H126V95.6249C126 94.9218 125.584 94.2512 124.995 94.005C124.326 93.7253 124.191 93.7301 123.539 94.0559ZM23.6127 94.5941C24.6497 97.8329 24.6299 97.7864 24.9773 97.7864C25.2737 97.7864 25.3607 97.6078 25.7039 96.2927L26.0939 94.799L26.4833 96.2542C26.8273 97.5395 26.9128 97.7095 27.2153 97.7095C27.5167 97.7095 27.6301 97.4884 28.1619 95.8633C28.4944 94.8479 28.767 93.995 28.7677 93.9679C28.7687 93.941 28.6148 93.941 28.4261 93.9679C28.1337 94.0099 28.0225 94.2338 27.6756 95.4787C27.2648 96.9532 27.2151 96.9793 26.9411 95.8633C26.4759 93.9685 26.4634 93.9402 26.09 93.9402C25.7614 93.9402 25.7005 94.0692 25.3864 95.4287C25.1784 96.3289 24.9979 96.8306 24.9299 96.6979C24.8679 96.5773 24.6584 95.9076 24.4642 95.2095C24.1528 94.0899 24.0694 93.9402 23.7573 93.9402C23.4107 93.9402 23.4076 93.9536 23.6127 94.5941ZM49.8462 95.5556C49.8462 96.9659 49.8853 97.2101 50.1539 97.4787C50.5332 97.8579 51.6218 97.8956 52.1196 97.5469C52.4292 97.3301 52.4616 97.3301 52.4616 97.5469C52.4616 97.6838 52.5935 97.7864 52.7693 97.7864C53.0606 97.7864 53.077 97.6838 53.077 95.8633V93.9402H52.6924C52.3109 93.9402 52.3078 93.9513 52.3078 95.3136C52.3078 96.6142 52.2863 96.7041 51.9024 97.0059C51.4026 97.3993 51.0483 97.4104 50.7163 97.0435C50.5183 96.8247 50.4616 96.4482 50.4616 95.3512C50.4616 94.0429 50.4393 93.9402 50.1539 93.9402C49.8658 93.9402 49.8462 94.0429 49.8462 95.5556ZM65.2529 95.8435C65.9687 97.621 66.0114 97.7981 65.8198 98.199C65.7014 98.4467 65.4649 98.6536 65.268 98.6818C64.7623 98.7538 64.7977 99.3249 65.3078 99.3249C65.8923 99.3249 66.2014 98.9036 66.841 97.2355C67.1627 96.3961 67.5851 95.3115 67.7792 94.8249L68.1324 93.9402H67.7712C67.4517 93.9402 67.3538 94.1095 66.92 95.4115C66.6504 96.2207 66.385 96.8384 66.3303 96.7842C66.2757 96.7301 66.0143 96.0853 65.7497 95.3515C65.3292 94.1859 65.2184 94.0112 64.8735 93.9693L64.4787 93.9215L65.2529 95.8435ZM78.0001 95.5556C78.0001 96.9659 78.0392 97.2101 78.3078 97.4787C78.6871 97.8579 79.8625 97.9069 80.154 97.5556C80.2594 97.4287 80.4063 97.3249 80.4805 97.3249C80.5548 97.3249 80.6155 97.4287 80.6155 97.5556C80.6155 97.6826 80.7194 97.7864 80.8463 97.7864C81.0391 97.7864 81.0771 97.4701 81.0771 95.8633C81.0771 94.0429 81.0606 93.9402 80.7694 93.9402C80.4846 93.9402 80.4617 94.0429 80.4617 95.3136C80.4617 96.6142 80.4401 96.7041 80.0563 97.0059C79.5565 97.3993 79.2022 97.4104 78.8702 97.0435C78.6722 96.8247 78.6155 96.4482 78.6155 95.3512C78.6155 94.0429 78.5932 93.9402 78.3078 93.9402C78.0197 93.9402 78.0001 94.0429 78.0001 95.5556ZM106.923 95.5556C106.923 96.9659 106.962 97.2101 107.231 97.4787C107.61 97.8579 108.699 97.8956 109.197 97.5469C109.506 97.3301 109.539 97.3301 109.539 97.5469C109.539 97.6838 109.671 97.7864 109.846 97.7864C110.138 97.7864 110.154 97.6838 110.154 95.8633V93.9402H109.769C109.388 93.9402 109.385 93.9513 109.385 95.3136C109.385 96.6142 109.363 96.7041 108.979 97.0059C108.48 97.3993 108.125 97.4104 107.793 97.0435C107.595 96.8247 107.539 96.4482 107.539 95.3512C107.539 94.0429 107.516 93.9402 107.231 93.9402C106.943 93.9402 106.923 94.0429 106.923 95.5556ZM11.3313 94.6278C11.5088 94.7522 11.6908 94.9945 11.7357 95.1662C11.812 95.4579 11.7469 95.4787 10.7548 95.4787C9.58879 95.4787 9.4114 95.2981 10 94.7095C10.3639 94.3456 10.8829 94.3138 11.3313 94.6278ZM21.9517 94.7362C22.5745 95.3215 22.4219 95.4787 21.2308 95.4787C20.051 95.4787 19.9416 95.3693 20.5316 94.7795C20.998 94.3129 21.4851 94.2981 21.9517 94.7362ZM33.6958 94.5575C34.2867 94.8738 34.3694 96.3098 33.8339 96.9552C33.5824 97.2581 32.7121 97.2253 32.4205 96.9018C31.4133 95.7841 32.4448 93.8879 33.6958 94.5575ZM56.3778 94.4973C56.5149 94.5499 56.7281 94.7887 56.852 95.0282C57.6107 96.4955 56.239 98.0393 55.147 96.9472C54.8556 96.6559 54.7693 96.4081 54.7693 95.8633C54.7693 94.7972 55.513 94.1655 56.3778 94.4973ZM61.1609 94.7795C61.9426 95.561 61.4546 97.3249 60.4569 97.3249C59.952 97.3249 59.2309 96.5129 59.2309 95.9444C59.2309 95.4053 59.5837 94.6246 59.8815 94.5047C60.3323 94.3233 60.8067 94.4252 61.1609 94.7795ZM75.9531 94.773C76.3115 95.0813 76.3848 95.2664 76.3848 95.8633C76.3848 96.4602 76.3115 96.6453 75.9531 96.9536C75.7157 97.1578 75.3908 97.3249 75.2309 97.3249C75.0711 97.3249 74.7461 97.1578 74.5088 96.9536C74.1503 96.6453 74.0771 96.4602 74.0771 95.8633C74.0771 95.2664 74.1503 95.0813 74.5088 94.773C74.7461 94.5689 75.0711 94.4018 75.2309 94.4018C75.3908 94.4018 75.7157 94.5689 75.9531 94.773ZM86.8532 94.7795C87.4432 95.3693 87.3339 95.4787 86.154 95.4787C84.9752 95.4787 84.8492 95.3564 85.4115 94.7578C85.8442 94.2975 86.3794 94.3055 86.8532 94.7795ZM95.6019 94.8752C96.1591 95.5373 96.1399 96.2858 95.5505 96.8752C95.0454 97.3801 94.6886 97.4358 94.1908 97.0872C93.5019 96.6046 93.4894 95.2309 94.1689 94.671C94.658 94.2682 95.1502 94.3382 95.6019 94.8752ZM115.916 94.4973C116.26 94.6292 116.616 95.3656 116.616 95.9444C116.616 96.5129 115.895 97.3249 115.39 97.3249C114.803 97.3249 114.308 96.6567 114.308 95.8633C114.308 94.7972 115.052 94.1655 115.916 94.4973ZM120.699 94.7795C120.991 95.0707 121.077 95.3186 121.077 95.8633C121.077 96.4081 120.991 96.6559 120.699 96.9472C120.239 97.4073 119.861 97.4249 119.334 97.0105C118.861 96.6382 118.682 95.8825 118.919 95.2589C119.261 94.3592 120.063 94.1432 120.699 94.7795ZM125.007 94.7795C125.597 95.3693 125.488 95.4787 124.308 95.4787C123.129 95.4787 123.003 95.3564 123.565 94.7578C123.998 94.2975 124.533 94.3055 125.007 94.7795ZM37.9281 96.975C37.4796 97.3607 37.207 97.4052 36.7591 97.1656C36.4219 96.9852 36.3662 96.5175 36.6539 96.2821C36.7598 96.1955 37.1578 96.063 37.5385 95.9876C38.205 95.8558 38.2328 95.8652 38.2828 96.2379C38.3192 96.5073 38.2113 96.7315 37.9281 96.975Z" fill="#F2F5FF"/>
<path d="M59.2497 26.3291C59.3665 26.286 59.8428 26.1846 60.3082 26.1037C60.7736 26.0229 62.2274 25.9803 63.539 26.0089C65.4707 26.0512 66.2033 26.1343 67.3965 26.4464C69.3005 26.9444 70.8771 27.6068 72.3967 28.5469C73.9098 29.4828 75.7672 31.0074 75.5925 31.1697C75.5207 31.2363 74.8044 31.4517 74.0005 31.6485C72.8625 31.9269 72.0962 32.0072 70.539 32.0115C68.3421 32.0177 67.3839 31.7945 65.4771 30.8322C63.6259 29.898 58.8793 26.4657 59.2497 26.3291Z" fill="#F2F5FF"/>
<path d="M53.7697 28.4335L55.22 27.7252C56.0179 27.3358 56.814 27.0177 56.9893 27.0185C57.1647 27.0191 58.6122 27.9857 60.2059 29.1663C65.2559 32.9072 67.1967 33.7791 70.487 33.784C72.143 33.7866 73.6921 33.5314 75.6558 32.9323L76.9699 32.5315L77.3255 32.9666C77.521 33.2058 77.6618 33.4675 77.6381 33.5482C77.5096 33.9866 72.9796 34.7602 70.539 34.7605C67.2576 34.7609 65.3545 34.1575 60.462 31.5652C57.8596 30.1863 56.1476 29.3685 54.539 28.736L53.7697 28.4335Z" fill="#F2F5FF"/>
<path d="M49.4417 32.0823C49.8297 31.6109 50.5763 30.8626 51.1008 30.4191C51.8853 29.7555 52.1245 29.63 52.4505 29.7111C53.4856 29.9683 56.3208 31.1929 58.6159 32.3742C64.8739 35.5952 66.1953 36.1102 69.0016 36.4212C71.081 36.6517 73.5793 36.3849 76.7181 35.5971L78.7433 35.0888L79.0713 35.7639C79.2516 36.1351 79.3739 36.4642 79.343 36.4951C79.217 36.6212 75.6384 37.1629 73.7879 37.336C71.0287 37.5942 67.6319 37.444 65.3851 36.9646C64.4121 36.7569 62.1137 36.1299 60.2777 35.5709C56.2951 34.3588 53.9017 33.7605 51.6159 33.4058C50.6851 33.2615 49.6565 33.0974 49.33 33.0412L48.7363 32.9391L49.4417 32.0823Z" fill="#F2F5FF"/>
<path d="M46.0205 37.956C46.1831 37.4819 46.5983 36.5232 46.9433 35.8259C47.478 34.7442 47.6189 34.5674 47.9008 34.6242C48.0825 34.6609 48.7851 34.7326 49.462 34.7837C51.898 34.9674 55.6911 35.8363 60.3082 37.2686C66.0867 39.0612 69.0827 39.4494 73.7698 39.0131C75.2636 38.874 78.2819 38.4357 79.6265 38.1626C80.0921 38.068 80.1016 38.0788 80.3052 38.9274C80.4187 39.4008 80.483 39.8166 80.4481 39.8516C80.4132 39.8865 78.0636 39.9996 75.2267 40.1028C69.8038 40.3002 66.2185 40.2011 60.846 39.7059C56.9857 39.35 52.2039 39.0388 48.8243 38.9236L45.7249 38.8179L46.0205 37.956Z" fill="#F2F5FF"/>
<path d="M45.1126 42.9028C45.1576 41.7979 45.2476 40.8074 45.3128 40.7019C45.4053 40.5522 46.2669 40.5326 49.216 40.6132C51.2974 40.6702 53.2082 40.7422 53.462 40.7732C53.7159 40.8043 54.6159 40.8752 55.462 40.9306C56.3082 40.986 57.3467 41.0634 57.7697 41.1026C58.7574 41.194 63.5197 41.5845 65.2742 41.7179C68.1107 41.9336 78.3465 41.8059 80.1373 41.5325C80.7925 41.4325 80.9182 41.6176 80.9213 42.688L80.9236 43.5129L80.4236 43.426C80.1485 43.3782 79.3352 43.2956 78.6159 43.2423C77.8967 43.1891 76.9967 43.1166 76.6159 43.0811C75.0644 42.9369 67.8239 42.8916 66.4621 43.0176C63.4673 43.2945 62.9402 43.3536 60.3082 43.7076C57.9299 44.0276 54.9017 44.3756 52.3082 44.6269C51.8428 44.6722 50.0151 44.7546 48.2466 44.8103L45.0312 44.9117L45.1126 42.9028Z" fill="#F2F5FF"/>
<path d="M58.6928 45.5493C61.9213 45.1308 65.2408 44.7443 66.3082 44.6625C69.0221 44.4543 74.9281 44.5862 79.6739 44.9608L80.9627 45.0626L80.8659 45.989C80.8127 46.4983 80.7501 46.9342 80.727 46.9574C80.7038 46.9805 79.6829 46.7966 78.4581 46.5486C74.9833 45.8454 72.2984 45.5823 69.6159 45.6823C66.6314 45.7937 65.2951 46.1079 59.4379 48.0748C56.9128 48.9228 54.0179 49.7988 53.0051 50.0213C50.9006 50.4836 48.2931 50.8559 47.1285 50.8602L46.3333 50.8633L46.0168 49.9017C45.6988 48.9351 45.2377 47.09 45.2336 46.7665C45.232 46.6485 46.0571 46.5591 47.8082 46.4873C51.2365 46.3468 55.124 46.0117 58.6928 45.5493Z" fill="#F2F5FF"/>
<path d="M60.5087 49.3283C63.6247 48.225 65.9859 47.5763 67.7698 47.3339C69.1845 47.1416 73.1973 47.2594 75.2313 47.5529C77.417 47.8685 80.0465 48.4005 80.2152 48.5613C80.3561 48.6956 80.0513 50.0445 79.8524 50.1674C79.7941 50.2036 79.0161 49.9962 78.1235 49.7068C73.8072 48.3071 69.9736 47.98 67.0256 48.7597C65.2565 49.2277 63.2096 50.1745 60.1339 51.9476C56.9567 53.7791 54.206 55.0831 52.0005 55.8033L50.0774 56.4313L49.3983 55.6857C48.7089 54.9288 47.2313 52.781 47.2313 52.5359C47.2313 52.462 47.482 52.4017 47.7885 52.4017C48.6689 52.4017 51.4657 51.9617 53.2313 51.5456C55.6008 50.9868 57.207 50.4976 60.5087 49.3283Z" fill="#F2F5FF"/>
<path d="M59.9325 53.6776C64.1899 51.226 66.5825 50.2208 68.8033 49.9502C70.9456 49.6893 74.0088 50.0611 77.1542 50.9637C78.1695 51.2551 79.0613 51.5548 79.1362 51.6297C79.2153 51.7088 79.0919 52.077 78.8424 52.507C75.8548 57.6539 71.2367 60.8713 65.6447 61.7016C63.7562 61.9821 62.6981 61.9991 60.9196 61.7782C59.1716 61.5611 57.5159 61.1268 56.0034 60.489C54.017 59.6513 51.0946 57.7268 51.5591 57.5624C51.675 57.5213 52.289 57.3053 52.9236 57.0824C54.582 56.4997 57.4554 55.1039 59.9325 53.6776Z" fill="#F2F5FF"/>
</g>
<defs>
<clipPath id="clip0">
<rect width="126" height="126" fill="white"/>
</clipPath>
</defs>
</svg>
