<svg width="126" height="126" viewBox="0 0 126 126" fill="none" xmlns="http://www.w3.org/2000/svg">
<path fill-rule="evenodd" clip-rule="evenodd" d="M19.0054 51.9798C19.0054 53.0618 20.1864 53.3108 23.8674 53.0038C25.3484 52.8808 25.9794 53.2128 25.5584 53.8938C24.7224 55.2468 20.7414 55.3158 19.4254 53.9998C18.1054 52.6798 11.7854 54.4628 9.7224 56.7358C8.2274 58.3828 8.5544 58.4618 15.5724 58.1508C20.5034 57.9328 23.0054 58.1918 23.0054 58.9198C23.0054 59.5828 22.0444 59.7768 20.5774 59.4088C17.9894 58.7588 14.0054 59.6308 14.0054 60.8468C14.0054 61.2488 15.5804 61.3948 17.5054 61.1698C19.6474 60.9198 21.0054 61.1918 21.0054 61.8708C21.0054 62.4808 19.7684 63.0408 18.2554 63.1158C15.8184 63.2368 15.7674 63.3018 17.8094 63.6928C19.0764 63.9348 20.5174 65.1958 21.0114 66.4958C21.9034 68.8428 24.7874 70.9798 27.0624 70.9798C27.9594 70.9798 27.9474 70.6158 27.0164 69.4928C24.3574 66.2888 28.4694 60.9798 33.6114 60.9798C34.4434 60.9798 34.8454 60.5298 34.5054 59.9798C33.3724 58.1458 30.2504 58.9488 27.1114 61.8808C23.7444 65.0258 23.0864 64.7368 25.5634 61.2008C26.4204 59.9768 26.8004 58.4568 26.4074 57.8218C25.3364 56.0888 32.6294 57.4978 35.8614 59.6478L38.5054 61.4068L34.5874 62.0638C30.8114 62.6958 28.0054 65.0448 28.0054 67.5748C28.0054 69.2018 34.0724 75.9798 35.5284 75.9798C36.1644 75.9798 37.2024 74.8428 37.8354 73.4528C38.9154 71.0828 38.7904 70.8868 35.8294 70.2948L32.6724 69.6628L35.3524 67.3578C38.1014 64.9938 40.6544 65.0738 41.1984 67.5408C41.7354 69.9758 46.4834 66.8518 46.6304 63.9668C46.7724 61.1578 39.7364 53.5888 35.4764 51.9688C32.0624 50.6708 19.0054 50.6798 19.0054 51.9798ZM37.5054 55.9798C37.8454 56.5298 37.6464 56.9798 37.0644 56.9798C36.4824 56.9798 36.0054 56.5298 36.0054 55.9798C36.0054 55.4298 36.2034 54.9798 36.4464 54.9798C36.6894 54.9798 37.1654 55.4298 37.5054 55.9798ZM51.5784 60.2298C51.2014 63.1178 50.6454 66.4928 50.3414 67.7298C49.8224 69.8398 50.1034 69.9798 54.8614 69.9798C58.9434 69.9798 60.1484 69.5808 61.0254 67.9418C61.6254 66.8208 61.8414 65.0378 61.5054 63.9798C61.1694 62.9218 61.4004 61.1098 62.0194 59.9538C63.6904 56.8318 61.6404 54.9798 56.5114 54.9798H52.2634L51.5784 60.2298ZM64.0054 56.4798C64.0054 57.3128 64.8944 57.9798 66.0054 57.9798C67.1164 57.9798 68.0054 57.3128 68.0054 56.4798C68.0054 55.6468 67.1164 54.9798 66.0054 54.9798C64.8944 54.9798 64.0054 55.6468 64.0054 56.4798ZM78.1284 56.3318C77.5104 57.0758 76.7164 60.4508 76.3634 63.8318C75.8194 69.0338 75.9634 69.9798 77.2964 69.9798C78.2714 69.9798 78.9934 68.9328 79.1894 67.2348C79.4364 65.0858 80.1394 64.3798 82.4234 63.9848C86.5624 63.2688 87.0064 60.9798 83.0054 60.9798C78.8704 60.9798 79.5014 58.5948 83.7474 58.1728C85.4454 58.0038 87.0844 57.2168 87.3894 56.4228C88.1324 54.4838 79.7304 54.4018 78.1284 56.3318ZM71.0054 57.4798C71.0054 58.3048 70.3304 58.9798 69.5054 58.9798C68.6804 58.9798 68.0054 59.4298 68.0054 59.9798C68.0054 60.5298 68.5114 60.9798 69.1304 60.9798C69.8464 60.9798 70.0384 62.0668 69.6574 63.9688C68.8874 67.8188 69.7474 69.9798 72.0494 69.9798C73.5974 69.9798 73.7884 69.4158 73.2874 66.3298C72.8224 63.4628 73.1034 62.3658 74.6004 61.2148C75.9334 60.1898 76.1304 59.6098 75.2554 59.2818C74.5684 59.0238 74.0054 58.1758 74.0054 57.3968C74.0054 56.6178 73.3304 55.9798 72.5054 55.9798C71.6804 55.9798 71.0054 56.6548 71.0054 57.4798ZM58.7554 59.2298C58.1254 61.1218 55.0054 61.3908 55.0054 59.5528C55.0054 58.6258 55.8604 57.9798 57.0884 57.9798C58.3104 57.9798 59.0004 58.4968 58.7554 59.2298ZM63.4634 62.7298C63.1154 64.7928 62.6144 67.2668 62.3504 68.2298C62.0054 69.4868 62.4524 69.9798 63.9384 69.9798C65.2364 69.9798 66.0094 69.3288 66.0164 68.2298C66.0224 67.2668 66.3064 64.7928 66.6474 62.7298C67.1464 59.7128 66.9574 58.9798 65.6814 58.9798C64.6284 58.9798 63.8834 60.2388 63.4634 62.7298ZM86.6464 63.5828C86.2994 66.1148 86.2394 68.5498 86.5134 68.9928C86.7874 69.4358 89.0354 69.7688 91.5084 69.7308C94.9204 69.6798 96.0084 69.2788 96.0164 68.0718C96.0224 67.1958 96.3064 64.7928 96.6474 62.7298C97.1504 59.6858 96.9624 58.9798 95.6484 58.9798C94.5364 58.9798 93.8314 60.2148 93.3994 62.9178C93.0534 65.0838 92.0884 67.1178 91.2554 67.4378C89.9984 67.9198 89.8274 67.2508 90.2504 63.4988C90.6814 59.6758 90.4914 58.9798 89.0184 58.9798C87.7074 58.9798 87.1214 60.1158 86.6464 63.5828ZM98.6284 60.8298C98.3814 61.7378 97.8954 64.1678 97.5474 66.2298C97.0384 69.2448 97.2234 69.9798 98.4914 69.9798C100.111 69.9798 100.405 69.4568 101.441 64.7298C101.851 62.8578 102.676 61.9798 104.024 61.9798C105.114 61.9798 106.005 61.3498 106.005 60.5798C106.005 58.4698 99.2074 58.6998 98.6284 60.8298ZM107.005 63.1508C107.005 65.7078 107.677 68.0648 108.742 69.2418C110.391 71.0638 110.391 71.2248 108.742 72.4308C107.108 73.6248 106.331 75.9798 107.571 75.9798C109.89 75.9798 112.589 72.8648 115.081 67.3108C118.416 59.8778 118.573 58.9798 116.543 58.9798C115.739 58.9798 114.234 60.8918 113.198 63.2298L111.316 67.4798L110.572 63.2298C109.564 57.4608 107.005 57.4038 107.005 63.1508ZM57.8284 65.3128C58.0464 66.4368 57.4764 66.9798 56.0784 66.9798C54.9384 66.9798 54.0054 66.3798 54.0054 65.6468C54.0054 62.5838 57.2444 62.3008 57.8284 65.3128Z" fill="#F2F5FF"/>
</svg>
