<svg width="40" height="40" viewBox="0 0 40 40" fill="none" xmlns="http://www.w3.org/2000/svg">
<path d="M40 20.0002C40 26.6034 34.6667 32.0002 28 32.0002C21.3968 32.0002 16 26.6034 16 20.0002C16 13.397 21.3333 8.00018 27.9365 8.00018C34.6667 8.00018 40 13.397 40 20.0002Z" fill="#A7A7B6"/>
<path d="M11.873 8.00018C5.33333 8.06368 0 13.397 0 20.0002C0 26.6034 5.33333 32.0002 12 32.0002C15.1111 32.0002 17.9048 30.7938 20.0635 28.8891C20.5079 28.5081 20.8889 28.0637 21.2698 27.6192H18.7937C18.4762 27.2383 18.1587 26.7938 17.9048 26.4129H22.1587C22.4127 26.0319 22.6667 25.5875 22.8571 25.143H17.2064C17.0159 24.7621 16.8254 24.3176 16.6984 23.8732H23.3016C23.6825 22.6668 23.9365 21.397 23.9365 20.0637C23.9365 19.1748 23.8095 18.3494 23.6825 17.524H16.3175C16.381 17.0795 16.5079 16.6986 16.6349 16.2542H23.2381C23.1111 15.8097 22.9206 15.3653 22.7302 14.9843H17.1429C17.3333 14.5399 17.5873 14.1589 17.8413 13.7145H22.0952C21.8413 13.27 21.5238 12.8256 21.1429 12.4446H18.7937C19.1746 12.0002 19.5556 11.6192 20 11.2383C17.9048 9.27002 15.0476 8.12717 11.9365 8.12717C11.9365 8.00018 11.9365 8.00018 11.873 8.00018Z" fill="#686873"/>
<path d="M16.2536 23.0476L16.4441 21.9683C16.3806 21.9683 16.2536 22.0318 16.1266 22.0318C15.6821 22.0318 15.6187 21.7778 15.6821 21.6508L16.0631 19.4286H16.7615L16.952 18.2222H16.3171L16.4441 17.4603H15.1742C15.1742 17.4603 14.4123 21.6508 14.4123 22.1587C14.4123 22.9206 14.8567 23.2381 15.4282 23.2381C15.8091 23.2381 16.1266 23.1111 16.2536 23.0476Z" fill="#E0E0E9"/>
<path d="M16.698 21.016C16.698 22.7938 17.9044 23.2382 18.9203 23.2382C19.8726 23.2382 20.2536 23.0477 20.2536 23.0477L20.5076 21.8414C20.5076 21.8414 19.8092 22.1589 19.1742 22.1589C17.7774 22.1589 18.0314 21.143 18.0314 21.143H20.6345C20.6345 21.143 20.825 20.3176 20.825 20.0001C20.825 19.1747 20.3806 18.1589 18.9838 18.1589C17.6504 18.0319 16.698 19.4287 16.698 21.016ZM18.9203 19.1747C19.6187 19.1747 19.4917 20.0001 19.4917 20.0636H18.0949C18.0949 20.0001 18.2219 19.1747 18.9203 19.1747Z" fill="#E0E0E9"/>
<path d="M26.9839 23.0477L27.2378 21.6509C27.2378 21.6509 26.6029 21.9684 26.1585 21.9684C25.2696 21.9684 24.8886 21.27 24.8886 20.5081C24.8886 18.9842 25.6505 18.1588 26.5394 18.1588C27.1743 18.1588 27.6823 18.5398 27.6823 18.5398L27.8728 17.2065C27.8728 17.2065 27.1109 16.889 26.4124 16.889C24.9521 16.889 23.4918 18.1588 23.4918 20.5715C23.4918 22.1588 24.2537 23.2382 25.7775 23.2382C26.2855 23.2382 26.9839 23.0477 26.9839 23.0477Z" fill="#E0E0E9"/>
<path d="M9.2696 18.0318C8.38071 18.0318 7.74579 18.2858 7.74579 18.2858L7.55531 19.3652C7.55531 19.3652 8.12674 19.1112 8.95214 19.1112C9.39658 19.1112 9.77753 19.1747 9.77753 19.5556C9.77753 19.8096 9.71404 19.8731 9.71404 19.8731C9.71404 19.8731 9.33309 19.8731 9.14261 19.8731C8.06325 19.8731 6.8569 20.3175 6.8569 21.7779C6.8569 22.9207 7.61881 23.1747 8.06325 23.1747C8.95214 23.1747 9.33309 22.6033 9.39658 22.6033L9.33309 23.1112H10.4759L10.9839 19.6191C10.9839 18.0953 9.71404 18.0318 9.2696 18.0318ZM9.52357 20.889C9.52357 21.0794 9.39658 22.0953 8.63468 22.0953C8.25373 22.0953 8.12674 21.7779 8.12674 21.5874C8.12674 21.2699 8.31722 20.8255 9.2696 20.8255C9.46007 20.889 9.52357 20.889 9.52357 20.889Z" fill="#E0E0E9"/>
<path d="M12.1902 23.1747C12.5077 23.1747 14.095 23.2382 14.095 21.5239C14.095 19.9366 12.5712 20.2541 12.5712 19.6192C12.5712 19.3017 12.8251 19.1747 13.2696 19.1747C13.4601 19.1747 14.1585 19.2382 14.1585 19.2382L14.3489 18.0954C14.3489 18.0954 13.9045 17.9684 13.1426 17.9684C12.1902 17.9684 11.2378 18.3493 11.2378 19.6192C11.2378 21.0795 12.8251 20.9525 12.8251 21.5239C12.8251 21.9049 12.3807 21.9684 12.0632 21.9684C11.4918 21.9684 10.9204 21.7779 10.9204 21.7779L10.7299 22.9207C10.7934 23.0477 11.1108 23.1747 12.1902 23.1747Z" fill="#E0E0E9"/>
<path d="M37.5235 17.016L37.2695 18.7302C37.2695 18.7302 36.7616 18.0953 36.0631 18.0953C34.9203 18.0953 33.9044 19.4921 33.9044 21.1429C33.9044 22.1588 34.4124 23.2382 35.4917 23.2382C36.2536 23.2382 36.6981 22.7302 36.6981 22.7302L36.6346 23.1747H37.9044L38.8568 17.0794L37.5235 17.016ZM36.952 20.381C36.952 21.0794 36.6346 21.9683 35.9362 21.9683C35.4917 21.9683 35.2378 21.5874 35.2378 20.9525C35.2378 19.9366 35.6822 19.3017 36.2536 19.3017C36.6981 19.3017 36.952 19.6191 36.952 20.381Z" fill="#E0E0E9"/>
<path d="M2.34893 23.1112L3.11083 18.5398L3.23782 23.1112H4.12671L5.7775 18.5398L5.07909 23.1112H6.41242L7.42829 17.016H5.33305L4.06321 20.762L3.99972 17.016H2.15845L1.14258 23.1112H2.34893Z" fill="#E0E0E9"/>
<path d="M22.0315 23.1112C22.4125 21.0159 22.476 19.3016 23.3648 19.6191C23.4918 18.7937 23.6823 18.4762 23.8093 18.1588C23.8093 18.1588 23.7458 18.1588 23.5553 18.1588C22.9839 18.1588 22.5395 18.9207 22.5395 18.9207L22.6664 18.2223H21.4601L20.6347 23.1747H22.0315V23.1112Z" fill="#E0E0E9"/>
<path d="M29.9045 18.0318C29.0156 18.0318 28.3807 18.2858 28.3807 18.2858L28.1902 19.3652C28.1902 19.3652 28.7617 19.1112 29.5871 19.1112C30.0315 19.1112 30.4125 19.1747 30.4125 19.5556C30.4125 19.8096 30.349 19.8731 30.349 19.8731C30.349 19.8731 29.968 19.8731 29.7775 19.8731C28.6982 19.8731 27.4918 20.3175 27.4918 21.7779C27.4918 22.9207 28.2537 23.1747 28.6982 23.1747C29.5871 23.1747 29.968 22.6033 30.0315 22.6033L29.968 23.1112H31.1109L31.6188 19.6191C31.6823 18.0953 30.349 18.0318 29.9045 18.0318ZM30.222 20.889C30.222 21.0794 30.095 22.0953 29.3331 22.0953C28.9521 22.0953 28.8252 21.7779 28.8252 21.5874C28.8252 21.2699 29.0156 20.8255 29.968 20.8255C30.1585 20.889 30.1585 20.889 30.222 20.889Z" fill="#E0E0E9"/>
<path d="M32.6982 23.1112C33.0791 21.0159 33.1426 19.3016 34.0315 19.6191C34.1585 18.7937 34.349 18.4762 34.4759 18.1588C34.4759 18.1588 34.4124 18.1588 34.222 18.1588C33.6505 18.1588 33.2061 18.9207 33.2061 18.9207L33.3331 18.2223H32.1267L31.3013 23.1747H32.6982V23.1112Z" fill="#E0E0E9"/>
</svg>
