<svg width="80" height="80" viewBox="0 0 80 80" fill="none" xmlns="http://www.w3.org/2000/svg">
<g clip-path="url(#clip0)">
<path d="M65.7968 10.75C58.9217 4.68196 49.8909 1 40 1C18.4609 1 1 18.4609 1 40C1 61.5391 18.4609 79 40 79C61.5391 79 79 61.5391 79 40C79 32.1073 76.6555 24.7623 72.6248 18.6232" stroke="#535D76"/>
<path d="M1 40C1 34.8784 2.00877 29.807 3.9687 25.0753C5.92864 20.3436 8.80136 16.0443 12.4228 12.4228C16.0443 8.80134 20.3437 5.92863 25.0754 3.96869C29.8071 2.00876 34.8785 0.999996 40 0.999997" stroke="#3359DF" stroke-width="2"/>
<circle cx="68" cy="70" r="10" fill="#3359DF"/>
<path d="M64.6077 68.18C64.6077 68.55 64.6777 68.89 64.8277 69.19C64.9677 69.49 65.1477 69.75 65.3677 69.95L65.9977 70.53C66.2077 70.72 66.3877 70.93 66.5377 71.16C66.6777 71.39 66.7577 71.63 66.7577 71.89C66.7577 72.35 66.5677 72.57 66.1877 72.57C65.8077 72.57 65.6177 72.35 65.6177 71.89V71.39H64.5777V71.82C64.5777 72.39 64.7177 72.83 64.9977 73.13C65.2777 73.43 65.6777 73.58 66.2177 73.58C66.7477 73.58 67.1577 73.43 67.4377 73.13C67.7177 72.83 67.8577 72.39 67.8577 71.82C67.8577 71.55 67.8177 71.3 67.7377 71.06C67.6577 70.83 67.5477 70.63 67.4277 70.46C67.2977 70.29 67.1577 70.13 67.0077 69.98C66.8577 69.83 66.7077 69.69 66.5577 69.55C66.3977 69.41 66.2577 69.27 66.1377 69.13C66.0077 68.99 65.9077 68.84 65.8277 68.66C65.7477 68.49 65.7077 68.31 65.7077 68.11C65.7077 67.65 65.8877 67.42 66.2577 67.42C66.6177 67.42 66.8077 67.65 66.8077 68.11V68.4H67.8477V68.18C67.8477 67.62 67.7077 67.18 67.4377 66.88C67.1577 66.58 66.7577 66.42 66.2277 66.42C65.6877 66.42 65.2877 66.58 65.0177 66.88C64.7377 67.18 64.6077 67.62 64.6077 68.18ZM68.1679 67.5H69.3179V73.5H70.4179V67.5H71.5679V66.5H68.1679V67.5Z" fill="white"/>
<circle cx="40" cy="40" r="28" fill="#3359DF"/>
<path d="M52.882 36.7124L52.8307 36.643L52.8206 36.6227L48.1648 29.7112L43.509 36.6228L43.4993 36.6421L43.4476 36.7125C42.7005 37.7242 42.3057 38.9263 42.3057 40.1887C42.3057 43.4195 44.9341 46.0478 48.1648 46.0478C51.3954 46.0478 54.0239 43.4194 54.0239 40.1887C54.024 38.9262 53.6291 37.724 52.882 36.7124Z" fill="white"/>
<path d="M48.1643 48.0442C43.8328 48.0442 40.3089 44.5203 40.3089 40.1888C40.3089 38.505 40.8335 36.9006 41.826 35.5473L44.8866 31.0039L40.1684 24L30.3379 38.593C28.7923 40.6964 27.9756 43.1902 27.9756 45.8071C27.9756 52.5303 33.4453 58 40.1685 58C46.5388 58 51.7829 53.0892 52.3158 46.8545C51.1105 47.608 49.6875 48.0442 48.1643 48.0442Z" fill="white"/>
<path d="M40 71C22.8792 71 9 57.1208 9 40" stroke="#535D76"/>
<circle cx="30.5" cy="10.5" r="0.5" fill="#3359DF"/>
<circle cx="15.5" cy="65.5" r="0.5" fill="#3359DF"/>
<circle cx="71.5" cy="50.5" r="0.5" fill="#3359DF"/>
<circle cx="70" cy="14" r="3.5" stroke="white"/>
</g>
<defs>
<clipPath id="clip0">
<rect width="80" height="80" fill="white"/>
</clipPath>
</defs>
</svg>
