<svg width="80" height="80" viewBox="0 0 80 80" fill="none" xmlns="http://www.w3.org/2000/svg">
<g clip-path="url(#clip0)">
<path d="M23.5 4.65209C28.5112 2.30892 34.1027 1 40 1C61.5391 1 79 18.4609 79 40C79 47.6445 76.8006 54.7753 73 60.7941M6.8161 19.5C3.12857 25.4564 1 32.4796 1 40C1 61.5391 18.4609 79 40 79C46.0942 79 51.8619 77.6022 57 75.1098" stroke="#535D76"/>
<path d="M66 62V77" stroke="#F2F5FF"/>
<path d="M71 66.7727V65.5C71 64.9477 70.5523 64.5 70 64.5H62.625C62.0727 64.5 61.625 64.9477 61.625 65.5V68.5C61.625 69.0523 62.0727 69.5 62.625 69.5H70C70.5523 69.5 71 69.9477 71 70.5V73.5C71 74.0523 70.5523 74.5 70 74.5H61" stroke="#F2F5FF"/>
<path d="M40 12L64.2487 26V54L40 68L15.7513 54V26L40 12Z" fill="#3459DF"/>
<g clip-path="url(#clip1)">
<path d="M52.9541 49.5456H48.1815C45.1739 49.5456 42.727 47.0987 42.727 44.0912C42.727 41.0836 45.1739 38.6367 48.1815 38.6367H52.9541C53.331 38.6367 53.636 38.3318 53.636 37.9549V35.9095C53.636 34.4797 52.527 33.317 51.1258 33.2042L47.2101 26.3649C46.8472 25.7323 46.2613 25.2802 45.5601 25.0925C44.8623 24.906 44.1326 25.004 43.5081 25.3675L30.0848 33.1823H27.7272C26.2232 33.1823 25 34.4053 25 35.9095V52.2729C25 53.777 26.2231 55.0001 27.7272 55.0001H50.9087C52.4128 55.0001 53.636 53.777 53.636 52.2729V50.2274C53.636 49.8506 53.331 49.5456 52.9541 49.5456ZM48.0557 30.5874L49.5413 33.1823H43.5986L48.0557 30.5874ZM32.795 33.1823L44.1945 26.5459C44.5028 26.3655 44.863 26.3176 45.2072 26.4095C45.5555 26.5027 45.8458 26.7277 46.0262 27.0427L46.0276 27.0452L35.4867 33.1823H32.795Z" fill="#F2F5FF"/>
<path d="M52.9543 40.0004H48.1817C45.9258 40.0004 44.0908 41.8354 44.0908 44.0912C44.0908 46.3471 45.9258 48.1821 48.1817 48.1821H52.9543C54.0823 48.1821 54.9998 47.2646 54.9998 46.1366V42.0458C54.9998 40.9179 54.0823 40.0004 52.9543 40.0004ZM48.1817 45.4548C47.43 45.4548 46.8181 44.8429 46.8181 44.0912C46.8181 43.3395 47.43 42.7276 48.1817 42.7276C48.9334 42.7276 49.5453 43.3395 49.5453 44.0912C49.5453 44.8429 48.9334 45.4548 48.1817 45.4548Z" fill="#F2F5FF"/>
</g>
<path d="M0.999997 40C0.999996 45.1215 2.00876 50.1929 3.96869 54.9246C5.92863 59.6563 8.80135 63.9557 12.4228 67.5772C16.0443 71.1986 20.3436 74.0714 25.0753 76.0313C29.807 77.9912 34.8784 79 40 79" stroke="#3459DF" stroke-width="2"/>
<circle cx="71.5" cy="44.5" r="0.5" fill="#3459DF"/>
<circle cx="25.5" cy="69.5" r="0.5" fill="#3459DF"/>
<circle cx="27.5" cy="14.5" r="0.5" fill="#3459DF"/>
<circle cx="14" cy="10" r="7" fill="#3459DF"/>
<path d="M11.4452 7.61V11.39C11.4452 11.85 11.6352 12.08 12.0152 12.08C12.3952 12.08 12.5852 11.85 12.5852 11.39V7.61C12.5852 7.15 12.3952 6.92 12.0152 6.92C11.6352 6.92 11.4452 7.15 11.4452 7.61ZM10.3452 11.32V7.68C10.3452 7.12 10.4885 6.68667 10.7752 6.38C11.0618 6.07333 11.4752 5.92 12.0152 5.92C12.5552 5.92 12.9685 6.07333 13.2552 6.38C13.5418 6.68667 13.6852 7.12 13.6852 7.68V11.32C13.6852 11.88 13.5418 12.3133 13.2552 12.62C12.9685 12.9267 12.5552 13.08 12.0152 13.08C11.4752 13.08 11.0618 12.9267 10.7752 12.62C10.4885 12.3133 10.3452 11.88 10.3452 11.32ZM16.58 7.72C16.58 7.42 16.53 7.21333 16.43 7.1C16.3367 6.98 16.1967 6.92 16.01 6.92C15.63 6.92 15.44 7.15 15.44 7.61V8.36H14.4V7.68C14.4 7.11333 14.54 6.68 14.82 6.38C15.1 6.07333 15.5067 5.92 16.04 5.92C16.5733 5.92 16.98 6.07333 17.26 6.38C17.54 6.68 17.68 7.11333 17.68 7.68C17.68 8.08667 17.6033 8.47333 17.45 8.84C17.3033 9.20667 17.12 9.52 16.9 9.78C16.6867 10.04 16.4733 10.2833 16.26 10.51C16.0467 10.7367 15.8633 10.9667 15.71 11.2C15.5633 11.4267 15.49 11.6433 15.49 11.85C15.49 11.9167 15.4933 11.9667 15.5 12H17.58V13H14.4V12.14C14.4 11.76 14.4733 11.4133 14.62 11.1C14.7733 10.78 14.9567 10.5033 15.17 10.27C15.3833 10.03 15.5967 9.79667 15.81 9.57C16.0233 9.33667 16.2033 9.06333 16.35 8.75C16.5033 8.43667 16.58 8.09333 16.58 7.72Z" fill="#F2F5FF"/>
<line y1="-0.5" x2="4" y2="-0.5" transform="matrix(-1 0 0 1 72 6)" stroke="#F2F5FF"/>
<line y1="-0.5" x2="8" y2="-0.5" transform="matrix(-1 0 0 1 72 9)" stroke="#F2F5FF"/>
<line y1="-0.5" x2="12" y2="-0.5" transform="matrix(-1 0 0 1 72 12)" stroke="#F2F5FF"/>
<path d="M13 28.5V25L16 23" stroke="#3459DF"/>
<path d="M67 28.5V25L64 23" stroke="#3459DF"/>
<path d="M67 51L67 54.5L64 56.5" stroke="#3459DF"/>
<path d="M13 51L13 54.5L16 56.5" stroke="#3459DF"/>
</g>
<defs>
<clipPath id="clip0">
<rect width="80" height="80" fill="white"/>
</clipPath>
<clipPath id="clip1">
<rect width="30" height="30" fill="white" transform="translate(25 25)"/>
</clipPath>
</defs>
</svg>
