<svg width="80" height="80" viewBox="0 0 80 80" fill="none" xmlns="http://www.w3.org/2000/svg">
<g clip-path="url(#clip0)">
<path d="M23.5 4.65209C28.5112 2.30892 34.1027 1 40 1C49.5132 1 58.2309 4.40618 65 10.0655M6.8161 19.5C3.12857 25.4564 1 32.4796 1 40C1 61.5391 18.4609 79 40 79C46.0942 79 51.8619 77.6022 57 75.1098M73 60.7941C76.8006 54.7753 79 47.6445 79 40C79 32.6972 76.9928 25.8632 73.5 20.0196" stroke="#535D76"/>
<circle cx="70" cy="14" r="3.5" stroke="#F2F5FF"/>
<circle cx="40" cy="40" r="28" fill="#3459DF"/>
<path d="M47.5625 25C42.91 25 39.125 28.785 39.125 33.4375C39.125 38.09 42.91 41.875 47.5625 41.875C52.215 41.875 56 38.09 56 33.4375C56 28.785 52.215 25 47.5625 25ZM47.5625 38.125C46.43 38.125 45.4125 37.4506 44.9713 36.4075L46.6981 35.6769C46.8456 36.025 47.185 36.25 47.5625 36.25C48.0794 36.25 48.5 35.8294 48.5 35.3125C48.5 34.7956 48.0794 34.375 47.5625 34.375C46.0119 34.375 44.75 33.1131 44.75 31.5625C44.75 30.0119 46.0119 28.75 47.5625 28.75C48.695 28.75 49.7125 29.4244 50.1537 30.4675L48.4269 31.1981C48.2794 30.85 47.9406 30.625 47.5625 30.625C47.0456 30.625 46.625 31.0456 46.625 31.5625C46.625 32.0794 47.0456 32.5 47.5625 32.5C49.1131 32.5 50.375 33.7619 50.375 35.3125C50.375 36.8631 49.1131 38.125 47.5625 38.125Z" fill="#F2F5FF"/>
<path d="M52.1275 42.6838C50.7506 43.3663 49.2006 43.75 47.5625 43.75C42.1925 43.75 37.7675 39.6238 37.2919 34.375H35.3125C33.9956 34.375 32.7319 34.6419 31.5469 35.1694C30.585 34.6481 29.5231 34.375 28.4456 34.375H26.9617C26.2792 34.375 25.7972 35.0437 26.013 35.6912L27.1794 39.1906C27.0194 39.47 26.8806 39.7369 26.7613 40H25C24.4477 40 24 40.4477 24 41V46.5C24 47.0523 24.4477 47.5 25 47.5H26.7556C27.4881 49.1656 28.7056 50.6025 30.235 51.5925C31.0663 52.1306 31.5625 53.0419 31.5625 54.03C31.5625 54.5657 31.9968 55 32.5325 55H36.1875C36.7398 55 37.1875 54.5523 37.1875 54V53.125H42.8125V54C42.8125 54.5523 43.2602 55 43.8125 55H47.5C48.0178 55 48.4375 54.5803 48.4375 54.0625C48.4375 52.4937 48.9925 50.9675 50.0006 49.765C51.7175 47.7175 52.4119 45.1306 52.1275 42.6838ZM33.4375 40.9375C33.4375 41.4553 33.0178 41.875 32.5 41.875C31.9822 41.875 31.5625 41.4553 31.5625 40.9375C31.5625 40.4197 31.9822 40 32.5 40C33.0178 40 33.4375 40.4197 33.4375 40.9375Z" fill="#F2F5FF"/>
<path d="M40 79C45.1216 79 50.193 77.9912 54.9247 76.0313C59.6564 74.0714 63.9557 71.1986 67.5772 67.5772C71.1987 63.9557 74.0714 59.6563 76.0313 54.9247C77.9912 50.193 79 45.1216 79 40" stroke="#3459DF" stroke-width="2"/>
<circle cx="71.5" cy="44.5" r="0.5" fill="#3459DF"/>
<circle cx="25.5" cy="69.5" r="0.5" fill="#3459DF"/>
<circle cx="27.5" cy="14.5" r="0.5" fill="#3459DF"/>
<circle cx="14" cy="10" r="7" fill="#3459DF"/>
<path d="M11.4452 7.61V11.39C11.4452 11.85 11.6352 12.08 12.0152 12.08C12.3952 12.08 12.5852 11.85 12.5852 11.39V7.61C12.5852 7.15 12.3952 6.92 12.0152 6.92C11.6352 6.92 11.4452 7.15 11.4452 7.61ZM10.3452 11.32V7.68C10.3452 7.12 10.4885 6.68667 10.7752 6.38C11.0618 6.07333 11.4752 5.92 12.0152 5.92C12.5552 5.92 12.9685 6.07333 13.2552 6.38C13.5418 6.68667 13.6852 7.12 13.6852 7.68V11.32C13.6852 11.88 13.5418 12.3133 13.2552 12.62C12.9685 12.9267 12.5552 13.08 12.0152 13.08C11.4752 13.08 11.0618 12.9267 10.7752 12.62C10.4885 12.3133 10.3452 11.88 10.3452 11.32ZM16.52 8.11V7.72C16.52 7.42 16.47 7.21333 16.37 7.1C16.2767 6.98 16.1367 6.92 15.95 6.92C15.57 6.92 15.38 7.15 15.38 7.61V8.06H14.34V7.68C14.34 7.11333 14.48 6.68 14.76 6.38C15.04 6.07333 15.4467 5.92 15.98 5.92C16.5133 5.92 16.92 6.07333 17.2 6.38C17.48 6.68 17.62 7.11333 17.62 7.68V7.86C17.62 8.60667 17.3633 9.08667 16.85 9.3C17.3633 9.52667 17.62 10.0167 17.62 10.77V11.32C17.62 11.8867 17.48 12.3233 17.2 12.63C16.92 12.93 16.5133 13.08 15.98 13.08C15.4467 13.08 15.04 12.93 14.76 12.63C14.48 12.3233 14.34 11.8867 14.34 11.32V10.74H15.38V11.39C15.38 11.85 15.57 12.08 15.95 12.08C16.1367 12.08 16.2767 12.0233 16.37 11.91C16.47 11.79 16.52 11.5833 16.52 11.29V10.74C16.52 10.42 16.4633 10.1933 16.35 10.06C16.2367 9.92 16.0533 9.85 15.8 9.85H15.43V8.85H15.86C16.08 8.85 16.2433 8.79333 16.35 8.68C16.4633 8.56667 16.52 8.37667 16.52 8.11Z" fill="#F2F5FF"/>
<path d="M40 71C22.8792 71 9 57.1208 9 40" stroke="#535D76"/>
<line y1="-0.5" x2="4" y2="-0.5" transform="matrix(1.19249e-08 -1 -1 -1.19249e-08 17 77)" stroke="#F2F5FF"/>
<line y1="-0.5" x2="8" y2="-0.5" transform="matrix(1.19249e-08 -1 -1 -1.19249e-08 14 77)" stroke="#F2F5FF"/>
<line y1="-0.5" x2="12" y2="-0.5" transform="matrix(1.19249e-08 -1 -1 -1.19249e-08 11 77)" stroke="#F2F5FF"/>
</g>
<defs>
<clipPath id="clip0">
<rect width="80" height="80" fill="white"/>
</clipPath>
</defs>
</svg>
