<svg width="80" height="80" viewBox="0 0 80 80" fill="none" xmlns="http://www.w3.org/2000/svg">
<g clip-path="url(#clip0)">
<path d="M38.0002 9C46.2618 9 53.7685 12.2317 59.3252 17.5" stroke="#535D76"/>
<path d="M23.5 4.65209C28.5112 2.30892 34.1027 1 40 1C61.5391 1 79 18.4609 79 40C79 61.5391 61.5391 79 40 79C18.4609 79 1 61.5391 1 40C1 32.4796 3.12857 25.4564 6.8161 19.5" stroke="#535D76"/>
<path d="M66.25 66.7217L68.7141 68.1443C68.8688 68.2337 68.9641 68.3987 68.9641 68.5774V71.4226C68.9641 71.6013 68.8688 71.7663 68.7141 71.8557L66.25 73.2783C66.0953 73.3676 65.9047 73.3676 65.75 73.2783L63.2859 71.8557C63.1312 71.7663 63.0359 71.6013 63.0359 71.4226V68.5774C63.0359 68.3987 63.1312 68.2337 63.2859 68.1443L65.75 66.7217C65.9047 66.6324 66.0953 66.6324 66.25 66.7217Z" stroke="#F2F5FF"/>
<path d="M40.9125 71C36.6288 71 32.5481 70.1311 28.8369 68.5601" stroke="#535D76"/>
<path d="M79 40C79 34.8784 77.9912 29.807 76.0313 25.0753C74.0714 20.3436 71.1986 16.0443 67.5772 12.4228C63.9557 8.80135 59.6564 5.92863 54.9247 3.9687C50.193 2.00876 45.1216 1 40 1" stroke="#3459DF" stroke-width="2"/>
<circle cx="8.5" cy="24.5" r="0.5" fill="#3459DF"/>
<circle cx="71.5" cy="36.5" r="0.5" fill="#3459DF"/>
<circle cx="56.5" cy="67.5" r="0.5" fill="#3459DF"/>
<circle cx="14" cy="10" r="7" fill="#3459DF"/>
<path d="M11.4452 7.61C11.4452 7.15 11.6352 6.92 12.0152 6.92C12.3952 6.92 12.5852 7.15 12.5852 7.61V11.39C12.5852 11.85 12.3952 12.08 12.0152 12.08C11.6352 12.08 11.4452 11.85 11.4452 11.39V7.61ZM10.3452 11.32C10.3452 11.88 10.4852 12.32 10.7752 12.62C11.0552 12.93 11.4752 13.08 12.0152 13.08C12.5552 13.08 12.9652 12.93 13.2552 12.62C13.5352 12.32 13.6852 11.88 13.6852 11.32V7.68C13.6852 7.12 13.5352 6.69 13.2552 6.38C12.9652 6.08 12.5552 5.92 12.0152 5.92C11.4752 5.92 11.0552 6.08 10.7752 6.38C10.4852 6.69 10.3452 7.12 10.3452 7.68V11.32ZM15.08 7.66H15.93V13H17.03V6H16.29C16.18 6.3 16.05 6.52 15.89 6.66C15.73 6.81 15.46 6.88 15.08 6.88V7.66Z" fill="#F2F5FF"/>
<rect opacity="0.2" x="66" y="61" width="52" height="41" rx="3" transform="rotate(-180 66 61)" fill="url(#paint0_linear)"/>
<rect x="19" y="16" width="42" height="48" rx="3" fill="#3459DF"/>
<path d="M57.0003 24.0003V19.9997M55 22H59.0006" stroke="#F2F5FF" stroke-linecap="round" stroke-linejoin="round"/>
<circle cx="40" cy="32" r="12" fill="#F2F5FF"/>
<path d="M40 25C37.9646 25 36.3086 26.656 36.3086 28.6914C36.3086 30.7268 37.9646 32.3828 40 32.3828C42.0354 32.3828 43.6914 30.7268 43.6914 28.6914C43.6914 26.656 42.0354 25 40 25Z" fill="#3459DF"/>
<path d="M44.5928 34.7944C43.5822 33.7682 42.2424 33.2031 40.8203 33.2031H39.1797C37.7576 33.2031 36.4178 33.7682 35.4072 34.7944C34.4015 35.8155 33.8477 37.1634 33.8477 38.5898C33.8477 38.8164 34.0313 39 34.2578 39H45.7422C45.9687 39 46.1523 38.8164 46.1523 38.5898C46.1523 37.1634 45.5985 35.8155 44.5928 34.7944Z" fill="#3459DF"/>
<line x1="52" y1="48.5" x2="28" y2="48.5" stroke="#F2F5FF"/>
<line x1="52" y1="51.5" x2="28" y2="51.5" stroke="#F2F5FF"/>
<rect x="28" y="55" width="24" height="3" rx="1" fill="#F2F5FF"/>
</g>
<defs>
<linearGradient id="paint0_linear" x1="92" y1="61" x2="92" y2="102" gradientUnits="userSpaceOnUse">
<stop stop-color="#3359DF" stop-opacity="0"/>
<stop offset="1" stop-color="#3359DF"/>
</linearGradient>
<clipPath id="clip0">
<rect width="80" height="80" fill="white"/>
</clipPath>
</defs>
</svg>
