<svg width="16" height="16" viewBox="0 0 16 16" fill="none" xmlns="http://www.w3.org/2000/svg">
<path d="M16 3.04479C15.4116 3.2986 14.7713 3.48127 14.1118 3.55242C14.7965 3.14561 15.3093 2.50293 15.5539 1.74494C14.9113 2.12718 14.2074 2.39522 13.4734 2.53715C13.1666 2.20917 12.7955 1.94788 12.3833 1.76957C11.9711 1.59126 11.5266 1.49975 11.0775 1.50074C9.26043 1.50074 7.79906 2.97364 7.79906 4.78112C7.79906 5.03493 7.82983 5.28875 7.87982 5.53295C5.159 5.39066 2.73236 4.09081 1.1191 2.10067C0.825142 2.60275 0.671099 3.17444 0.672996 3.75624C0.672996 4.89456 1.25177 5.89829 2.13436 6.4886C1.61424 6.46812 1.1063 6.32516 0.651845 6.07135V6.11172C0.651845 7.70576 1.77863 9.02676 3.28038 9.33057C2.99841 9.40381 2.70834 9.44128 2.41702 9.44209C2.20358 9.44209 2.00168 9.42094 1.79786 9.3921C2.2132 10.6919 3.42267 11.6361 4.86288 11.6668C3.73609 12.5494 2.32472 13.0686 0.792213 13.0686C0.517246 13.0686 0.26343 13.059 0 13.0282C1.45367 13.9608 3.17846 14.4992 5.03593 14.4992C11.066 14.4992 14.3656 9.50362 14.3656 5.16761C14.3656 5.02532 14.3656 4.88303 14.356 4.74074C14.9944 4.27348 15.5539 3.69471 16 3.04479Z" fill="#3359DF"/>
</svg>
