<svg width="40" height="40" viewBox="0 0 40 40" fill="none" xmlns="http://www.w3.org/2000/svg">
<g clip-path="url(#clip0)">
<path d="M14.666 25.7461L16.6978 14.3175H19.8724L17.9041 25.7461H14.666Z" fill="#686873"/>
<path d="M14.666 25.7461L17.2692 14.3175H19.8724L17.9041 25.7461H14.666Z" fill="#686873"/>
<path d="M29.3959 14.4444C28.761 14.1904 27.7451 13.9365 26.4753 13.9365C23.3007 13.9365 21.015 15.5238 21.015 17.8095C21.015 19.5238 22.6023 20.4127 23.8721 20.9841C25.142 21.5555 25.5229 21.9365 25.5229 22.4444C25.5229 23.2063 24.507 23.5873 23.6181 23.5873C22.3483 23.5873 21.6499 23.3968 20.5705 22.9523L20.1261 22.7619L19.6816 25.365C20.4435 25.6825 21.8404 26 23.3007 26C26.6658 26 28.888 24.4127 28.888 22C28.888 20.6666 28.0626 19.6507 26.1578 18.8254C25.015 18.2539 24.3166 17.9365 24.3166 17.365C24.3166 16.8571 24.888 16.3492 26.1578 16.3492C27.2372 16.3492 27.9991 16.5396 28.5705 16.7936L28.888 16.9206L29.3959 14.4444Z" fill="#686873"/>
<path d="M29.3959 14.4444C28.761 14.1904 27.7451 13.9365 26.4753 13.9365C23.3007 13.9365 21.5864 15.5238 21.5864 17.8095C21.5864 19.5238 22.6023 20.4127 23.8721 20.9841C25.142 21.5555 25.5229 21.9365 25.5229 22.4444C25.5229 23.2063 24.507 23.5873 23.6181 23.5873C22.3483 23.5873 21.6499 23.3968 20.5705 22.9523L20.1261 22.7619L19.6816 25.365C20.4435 25.6825 21.8404 26 23.3007 26C26.6658 26 28.888 24.4127 28.888 22C28.888 20.6666 28.0626 19.6507 26.1578 18.8254C25.015 18.2539 24.3166 17.9365 24.3166 17.365C24.3166 16.8571 24.888 16.3492 26.1578 16.3492C27.2372 16.3492 27.9991 16.5396 28.5705 16.7936L28.888 16.9206L29.3959 14.4444Z" fill="#686873"/>
<path d="M34.858 14.3175C34.0961 14.3175 33.5247 14.381 33.2072 15.1429L28.4453 25.7461H31.8739L32.5088 23.8413H36.5723L36.9532 25.7461H40.0009L37.3342 14.3175H34.858V14.3175ZM33.3977 21.9366C33.5882 21.3651 34.6675 18.5715 34.6675 18.5715C34.6675 18.5715 34.9215 17.8731 35.112 17.4286L35.3025 18.508C35.3025 18.508 35.9374 21.3651 36.0644 22.0001H33.3977V21.9366Z" fill="#686873"/>
<path d="M35.6199 14.3175C34.858 14.3175 34.2866 14.381 33.9691 15.1429L28.4453 25.7461H31.8739L32.5088 23.8413H36.5723L36.9532 25.7461H40.0009L37.3342 14.3175H35.6199V14.3175ZM33.3977 21.9366C33.6517 21.3016 34.6675 18.5715 34.6675 18.5715C34.6675 18.5715 34.9215 17.8731 35.112 17.4286L35.3025 18.508C35.3025 18.508 35.9374 21.3651 36.0644 22.0001H33.3977V21.9366Z" fill="#686873"/>
<path d="M8.82636 22.3173L8.5089 20.6665C7.93747 18.7618 6.0962 16.6665 4.06445 15.6507L6.9216 25.8094H10.3502L15.493 14.3808H12.0645L8.82636 22.3173Z" fill="#686873"/>
<path d="M8.82636 22.3173L8.5089 20.6665C7.93747 18.7618 6.0962 16.6665 4.06445 15.6507L6.9216 25.8094H10.3502L15.493 14.3808H12.6994L8.82636 22.3173Z" fill="#686873"/>
<path d="M0 14.3175L0.571429 14.4445C4.63492 15.3969 7.42857 17.8096 8.50794 20.6667L7.36508 15.2699C7.1746 14.508 6.60317 14.3175 5.90476 14.3175H0V14.3175Z" fill="#686873"/>
<path d="M12 21.9367L9.84124 19.7779L8.82537 22.1906L8.5714 20.6033C7.99997 18.6986 6.1587 16.6033 4.12695 15.5874L6.9841 25.7462H10.4127L12 21.9367Z" fill="#686873"/>
<path d="M17.9041 25.7463L15.174 22.9527L14.666 25.7463H17.9041Z" fill="#686873"/>
<path d="M25.2055 21.8097C25.4594 22.0637 25.5864 22.2542 25.5229 22.5081C25.5229 23.27 24.507 23.651 23.6182 23.651C22.3483 23.651 21.6499 23.4605 20.5705 23.0161L20.1261 22.8256L19.6816 25.4288C20.4435 25.7462 21.8404 26.0637 23.3007 26.0637C25.3324 26.0637 26.9832 25.4922 27.9356 24.4764L25.2055 21.8097Z" fill="#686873"/>
<path d="M28.8887 25.7461H31.8728L32.5077 23.8413H36.5712L36.9522 25.7461H39.9998L38.9204 21.1112L35.1109 17.4286L35.3014 18.4445C35.3014 18.4445 35.9363 21.3017 36.0633 21.9366H33.3966C33.6506 21.3017 34.6664 18.5715 34.6664 18.5715C34.6664 18.5715 34.9204 17.8731 35.1109 17.4286" fill="#686873"/>
<path d="M0 14.3177C4.06349 15.2701 7.49305 17.7543 8.57242 20.6114L7.52446 15.5241C7.33399 14.7622 6.69907 14.3177 6.00065 14.3177H0Z" fill="#A7A7B6"/>
</g>
<defs>
<clipPath id="clip0">
<rect width="40" height="40" fill="white"/>
</clipPath>
</defs>
</svg>
