<svg width="16" height="16" viewBox="0 0 16 16" fill="none" xmlns="http://www.w3.org/2000/svg">
<path d="M15.3369 10.3344C14.8605 9.76306 14.2999 9.27541 13.7695 8.75759C13.291 8.29083 13.2608 8.02007 13.6455 7.48135C14.0653 6.89339 14.5168 6.32797 14.9405 5.74266C15.3359 5.19566 15.7402 4.65014 15.9482 3.99519C16.0802 3.57851 15.9635 3.39446 15.5362 3.32151C15.4626 3.30874 15.3865 3.30808 15.3115 3.30808L12.7765 3.30509C12.4642 3.30045 12.2916 3.43658 12.1812 3.71331C12.0321 4.08738 11.8784 4.46112 11.7009 4.82209C11.2979 5.64053 10.8479 6.4316 10.217 7.10148C10.0779 7.24921 9.92404 7.43592 9.69158 7.35898C9.40074 7.25286 9.31502 6.77367 9.31983 6.61167L9.31734 3.68562C9.26097 3.26762 9.16828 3.08125 8.75326 3L6.11986 3.0005C5.76835 3.0005 5.59209 3.1363 5.40439 3.35616C5.29612 3.48317 5.26345 3.56558 5.48597 3.60769C5.92305 3.6906 6.16927 3.97347 6.2346 4.41171C6.3394 5.11192 6.3321 5.81496 6.27174 6.51799C6.254 6.72326 6.21869 6.92804 6.13727 7.11972C6.00993 7.42099 5.80433 7.48234 5.53422 7.29697C5.28965 7.12917 5.11787 6.89239 4.94974 6.65462C4.31817 5.76223 3.81428 4.79987 3.4034 3.78859C3.28468 3.49644 3.0799 3.31935 2.77034 3.31454C2.00977 3.30244 1.24903 3.30045 0.48846 3.3152C0.0308246 3.32383 -0.105637 3.54601 0.0807334 3.96087C0.90912 5.80352 1.83119 7.59493 3.0348 9.22683C3.65278 10.0643 4.36228 10.8037 5.27888 11.3276C6.31767 11.9216 7.4359 12.1003 8.61364 12.0453C9.16513 12.0194 9.33077 11.876 9.35631 11.3263C9.37355 10.9503 9.41616 10.5764 9.60171 10.2384C9.78376 9.90682 10.0595 9.84364 10.3774 10.0499C10.5364 10.1532 10.6704 10.2847 10.7969 10.4233C11.1073 10.7629 11.4065 11.1128 11.7287 11.4409C12.1328 11.8521 12.6115 12.095 13.2134 12.0454L15.5433 12.0459C15.9187 12.0214 16.1134 11.5611 15.8978 11.1421C15.7465 10.8486 15.5478 10.5873 15.3369 10.3344Z" fill="#3359DF"/>
</svg>
